<svg width="948" height="306" viewBox="0 0 948 306" fill="none" xmlns="http://www.w3.org/2000/svg">
<g opacity="0.25" clip-path="url(#clip0_42_1356)">
<path d="M300.796 99.7734H258.963V266.028H300.796V99.7734Z" fill="#D1D1D1"/>
<path d="M293.962 87.8525H265.797V157.725H293.962V87.8525Z" fill="#D1D1D1"/>
<path d="M287.686 80.2949H272.061V119.046H287.686V80.2949Z" fill="#D1D1D1"/>
<path d="M285.202 100.208H274.547V73.8018H278.388H282.199H285.202V100.208Z" fill="#D1D1D1"/>
<path d="M279.175 88.7107H278.016V62.2939H278.43H278.844H279.175V88.7107Z" fill="#D1D1D1"/>
<path d="M281.732 79.5808H280.572V53.1641H280.986H281.401H281.732V79.5808Z" fill="#D1D1D1"/>
<path d="M301.903 99.3496H257.844V101.118H301.903V99.3496Z" fill="#D1D1D1"/>
<path d="M294.977 87.0049H264.762V88.7109H294.977V87.0049Z" fill="#D1D1D1"/>
<path d="M288.339 79.5811H270.922V80.8838H288.339V79.5811Z" fill="#D1D1D1"/>
<path opacity="0.29" d="M269.689 90.6855H268.385V98.0057H269.689V90.6855Z" fill="#D1D1D1"/>
<path opacity="0.29" d="M273.314 90.6855H272.01V98.0057H273.314V90.6855Z" fill="#D1D1D1"/>
<path opacity="0.29" d="M276.928 90.6855H275.623V98.0057H276.928V90.6855Z" fill="#D1D1D1"/>
<path opacity="0.29" d="M280.553 90.6855H279.248V98.0057H280.553V90.6855Z" fill="#D1D1D1"/>
<path opacity="0.29" d="M284.176 90.6855H282.871V98.0057H284.176V90.6855Z" fill="#D1D1D1"/>
<path opacity="0.29" d="M287.801 90.6855H286.496V98.0057H287.801V90.6855Z" fill="#D1D1D1"/>
<path opacity="0.29" d="M291.424 90.6855H290.119V98.0057H291.424V90.6855Z" fill="#D1D1D1"/>
<path d="M265.797 106.401H262.629V115.086H265.797V106.401Z" fill="#D1D1D1"/>
<path opacity="0.29" d="M272.061 106.401H268.893V115.086H272.061V106.401Z" fill="#D1D1D1"/>
<path d="M278.327 106.401H275.158V115.086H278.327V106.401Z" fill="#D1D1D1"/>
<path d="M284.59 106.401H281.422V115.086H284.59V106.401Z" fill="#D1D1D1"/>
<path d="M290.846 106.401H287.688V115.086H290.846V106.401Z" fill="#D1D1D1"/>
<path d="M297.109 106.401H293.951V115.086H297.109V106.401Z" fill="#D1D1D1"/>
<path d="M265.797 119.945H262.629V128.63H265.797V119.945Z" fill="#D1D1D1"/>
<path d="M272.061 119.945H268.893V128.63H272.061V119.945Z" fill="#D1D1D1"/>
<path d="M278.327 119.945H275.158V128.63H278.327V119.945Z" fill="#D1D1D1"/>
<path opacity="0.29" d="M284.59 119.945H281.422V128.63H284.59V119.945Z" fill="#D1D1D1"/>
<path d="M290.846 119.945H287.688V128.63H290.846V119.945Z" fill="#D1D1D1"/>
<path d="M297.109 119.945H293.951V128.63H297.109V119.945Z" fill="#D1D1D1"/>
<path d="M265.797 133.479H262.629V142.164H265.797V133.479Z" fill="#D1D1D1"/>
<path d="M272.061 133.479H268.893V142.164H272.061V133.479Z" fill="#D1D1D1"/>
<path d="M278.327 133.479H275.158V142.164H278.327V133.479Z" fill="#D1D1D1"/>
<path d="M284.59 133.479H281.422V142.164H284.59V133.479Z" fill="#D1D1D1"/>
<path opacity="0.29" d="M290.846 133.479H287.688V142.164H290.846V133.479Z" fill="#D1D1D1"/>
<path opacity="0.29" d="M297.109 133.479H293.951V142.164H297.109V133.479Z" fill="#D1D1D1"/>
<path opacity="0.29" d="M265.797 147.014H262.629V155.699H265.797V147.014Z" fill="#D1D1D1"/>
<path d="M272.061 147.014H268.893V155.699H272.061V147.014Z" fill="#D1D1D1"/>
<path d="M278.327 147.014H275.158V155.699H278.327V147.014Z" fill="#D1D1D1"/>
<path d="M284.59 147.014H281.422V155.699H284.59V147.014Z" fill="#D1D1D1"/>
<path d="M290.846 147.014H287.688V155.699H290.846V147.014Z" fill="#D1D1D1"/>
<path d="M297.109 147.014H293.951V155.699H297.109V147.014Z" fill="#D1D1D1"/>
<path d="M265.797 160.558H262.629V169.243H265.797V160.558Z" fill="#D1D1D1"/>
<path opacity="0.29" d="M272.061 160.558H268.893V169.243H272.061V160.558Z" fill="#D1D1D1"/>
<path d="M278.327 160.558H275.158V169.243H278.327V160.558Z" fill="#D1D1D1"/>
<path opacity="0.29" d="M284.59 160.558H281.422V169.243H284.59V160.558Z" fill="#D1D1D1"/>
<path d="M290.846 160.558H287.688V169.243H290.846V160.558Z" fill="#D1D1D1"/>
<path d="M297.109 160.558H293.951V169.243H297.109V160.558Z" fill="#D1D1D1"/>
<path d="M265.797 174.092H262.629V182.777H265.797V174.092Z" fill="#D1D1D1"/>
<path d="M272.061 174.092H268.893V182.777H272.061V174.092Z" fill="#D1D1D1"/>
<path d="M278.327 174.092H275.158V182.777H278.327V174.092Z" fill="#D1D1D1"/>
<path d="M284.59 174.092H281.422V182.777H284.59V174.092Z" fill="#D1D1D1"/>
<path d="M290.846 174.092H287.688V182.777H290.846V174.092Z" fill="#D1D1D1"/>
<path opacity="0.29" d="M297.109 174.092H293.951V182.777H297.109V174.092Z" fill="#D1D1D1"/>
<path d="M265.797 187.637H262.629V196.322H265.797V187.637Z" fill="#D1D1D1"/>
<path opacity="0.29" d="M272.061 187.637H268.893V196.322H272.061V187.637Z" fill="#D1D1D1"/>
<path opacity="0.29" d="M278.327 187.637H275.158V196.322H278.327V187.637Z" fill="#D1D1D1"/>
<path d="M284.59 187.637H281.422V196.322H284.59V187.637Z" fill="#D1D1D1"/>
<path d="M290.846 187.637H287.688V196.322H290.846V187.637Z" fill="#D1D1D1"/>
<path d="M297.109 187.637H293.951V196.322H297.109V187.637Z" fill="#D1D1D1"/>
<path d="M265.797 201.171H262.629V209.856H265.797V201.171Z" fill="#D1D1D1"/>
<path d="M272.061 201.171H268.893V209.856H272.061V201.171Z" fill="#D1D1D1"/>
<path d="M278.327 201.171H275.158V209.856H278.327V201.171Z" fill="#D1D1D1"/>
<path d="M284.59 201.171H281.422V209.856H284.59V201.171Z" fill="#D1D1D1"/>
<path opacity="0.29" d="M290.846 201.171H287.688V209.856H290.846V201.171Z" fill="#D1D1D1"/>
<path d="M297.109 201.171H293.951V209.856H297.109V201.171Z" fill="#D1D1D1"/>
<path d="M265.797 214.715H262.629V223.4H265.797V214.715Z" fill="#D1D1D1"/>
<path opacity="0.29" d="M272.061 214.715H268.893V223.4H272.061V214.715Z" fill="#D1D1D1"/>
<path d="M278.327 214.715H275.158V223.4H278.327V214.715Z" fill="#D1D1D1"/>
<path d="M284.59 214.715H281.422V223.4H284.59V214.715Z" fill="#D1D1D1"/>
<path d="M290.846 214.715H287.688V223.4H290.846V214.715Z" fill="#D1D1D1"/>
<path d="M297.109 214.715H293.951V223.4H297.109V214.715Z" fill="#D1D1D1"/>
<path d="M265.797 228.249H262.629V236.934H265.797V228.249Z" fill="#D1D1D1"/>
<path d="M272.061 228.249H268.893V236.934H272.061V228.249Z" fill="#D1D1D1"/>
<path d="M278.327 228.249H275.158V236.934H278.327V228.249Z" fill="#D1D1D1"/>
<path opacity="0.29" d="M284.59 228.249H281.422V236.934H284.59V228.249Z" fill="#D1D1D1"/>
<path d="M290.846 228.249H287.688V236.934H290.846V228.249Z" fill="#D1D1D1"/>
<path opacity="0.29" d="M297.109 228.249H293.951V236.934H297.109V228.249Z" fill="#D1D1D1"/>
<path opacity="0.29" d="M265.797 241.793H262.629V250.478H265.797V241.793Z" fill="#D1D1D1"/>
<path d="M272.061 241.793H268.893V250.478H272.061V241.793Z" fill="#D1D1D1"/>
<path opacity="0.29" d="M278.327 241.793H275.158V250.478H278.327V241.793Z" fill="#D1D1D1"/>
<path d="M284.59 241.793H281.422V250.478H284.59V241.793Z" fill="#D1D1D1"/>
<path d="M290.846 241.793H287.688V250.478H290.846V241.793Z" fill="#D1D1D1"/>
<path d="M297.109 241.793H293.951V250.478H297.109V241.793Z" fill="#D1D1D1"/>
<path d="M204.715 106.102H137.471V246.157H204.715V106.102Z" fill="#D1D1D1"/>
<path d="M206.619 103.692H135.555V107.652H206.619V103.692Z" fill="#D1D1D1"/>
<path d="M202.456 98.626H139.727V117.443H202.456V98.626Z" fill="#D1D1D1"/>
<path d="M169.372 90.9229H144.531V111.477H169.372V90.9229Z" fill="#D1D1D1"/>
<path d="M158.904 96.7133H144.531V85.8984H154.834L158.904 96.7133Z" fill="#D1D1D1"/>
<path d="M151.718 76.9141H150.32V101.015H151.718V76.9141Z" fill="#D1D1D1"/>
<path d="M152.267 75.6624C152.273 75.9111 152.205 76.1559 152.071 76.3657C151.937 76.5755 151.744 76.7406 151.516 76.8401C151.287 76.9396 151.034 76.9688 150.789 76.9241C150.544 76.8794 150.318 76.7628 150.14 76.5891C149.962 76.4154 149.839 76.1926 149.788 75.9491C149.737 75.7056 149.76 75.4525 149.854 75.2221C149.948 74.9917 150.108 74.7945 150.315 74.6556C150.522 74.5167 150.765 74.4425 151.014 74.4424C151.341 74.4423 151.655 74.5698 151.889 74.7978C152.124 75.0257 152.259 75.336 152.267 75.6624Z" fill="#D1D1D1"/>
<path d="M761.584 256.816H687.972L678.787 50.8896L761.584 68.0528V256.816Z" fill="#D1D1D1"/>
<path d="M440.429 139.218V70.3688H428.884V51.934H424.762V24.8865H402.034V5.00419H400.014V24.8865H395.562V0H393.543V24.8865H379.181V70.3688H371.756V139.218H365.398V264.612H444.902V139.218H440.429Z" fill="#D1D1D1"/>
<path d="M922.984 254.263H43.4805V275.148H922.984V254.263Z" fill="#D1D1D1"/>
<path d="M561.186 270.03H522.242L537.412 192.165H561.186V270.03Z" fill="#94A5B1"/>
<path d="M935.366 273.069H11.9277V306H935.366V273.069Z" fill="#94A5B1"/>
<path d="M529.273 125.932V91.4299H516.764V78.2887H510.075V67.2567H507.725V48.3359H507.124V67.2567H504.774V78.2887H498.084V91.4299H485.669V125.932H483.091V188.588H463.852V260.001H483.091H502.33H531.758V125.932H529.273Z" fill="#94A5B1"/>
<path d="M601.135 165.572H540.611V166.668H543.345V268.872H598.401V166.668H601.135V165.572Z" fill="#94A5B1"/>
<path d="M325.139 191.027H271.471V276.161H325.139V191.027Z" fill="#94A5B1"/>
<path d="M263.384 234.649H171.092V276.161H263.384V234.649Z" fill="#94A5B1"/>
<path d="M240.821 141.896H220.557V243.84H240.821V141.896Z" fill="#94A5B1"/>
<path d="M226.085 114.703H225.029V170.142H226.085V114.703Z" fill="#94A5B1"/>
<path d="M229.513 118.901H228.457V174.34H229.513V118.901Z" fill="#94A5B1"/>
<path d="M234.505 135.589H222.121V149.247H234.505V135.589Z" fill="#94A5B1"/>
<path d="M295.028 206.268H259.77V276.161H295.028V206.268Z" fill="#94A5B1"/>
<path d="M400.016 132.312H333.828V276.161H400.016V132.312Z" fill="#94A5B1"/>
<path d="M393.512 127.358H340.33V151.314H393.512V127.358Z" fill="#94A5B1"/>
<path d="M405.15 135.32H328.701V137.006H405.15V135.32Z" fill="#94A5B1"/>
<path d="M353.025 203.507H321.836V276.15H353.025V203.507Z" fill="#94A5B1"/>
<path d="M134.249 200.746H98.4629V276.15H134.249V200.746Z" fill="#94A5B1"/>
<path d="M181.354 180.254H110.041V276.15H181.354V180.254Z" fill="#94A5B1"/>
<path d="M183.186 176.573H105.877V180.254H183.186V176.573Z" fill="#94A5B1"/>
<path d="M144.533 166.596H113.199V186.044H144.533V166.596Z" fill="#94A5B1"/>
<path d="M160.034 166.596H154.773V178.424H160.034V166.596Z" fill="#94A5B1"/>
<path d="M171.091 166.596H165.303V178.424H171.091V166.596Z" fill="#94A5B1"/>
<path d="M116.357 246.994H78.9863V276.161H116.357V246.994Z" fill="#94A5B1"/>
<path d="M82.5693 234.649H64.873V276.161H82.5693V234.649Z" fill="#94A5B1"/>
<path d="M73.7164 261.572H43.4805V276.151H73.7164V261.572Z" fill="#94A5B1"/>
<path d="M766.128 243.841H393.512V276.161H766.128V243.841Z" fill="#94A5B1"/>
<path d="M736.38 154.385C735.251 154.385 734.163 154.811 733.335 155.578C732.507 156.345 732.001 157.396 731.917 158.521L726.678 158.345C726.678 157.839 726.678 157.311 726.678 156.805C726.687 150.392 725.572 144.027 723.385 137.998L727.775 136.385C728.217 137.395 729.019 138.207 730.025 138.661C731.031 139.116 732.17 139.182 733.223 138.847C734.275 138.512 735.165 137.799 735.721 136.846C736.277 135.893 736.46 134.768 736.234 133.689C736.007 132.609 735.388 131.652 734.496 131.002C733.604 130.352 732.502 130.055 731.404 130.17C730.305 130.284 729.288 130.8 728.549 131.62C727.81 132.44 727.401 133.504 727.403 134.606C727.404 135.051 727.47 135.494 727.599 135.919L723.24 137.512C720.712 130.758 716.877 124.568 711.953 119.294L715.381 116.089C716.222 116.885 717.341 117.323 718.5 117.308C719.66 117.294 720.767 116.828 721.588 116.011C722.409 115.194 722.879 114.089 722.896 112.931C722.914 111.774 722.479 110.655 721.684 109.813C720.889 108.971 719.796 108.471 718.637 108.421C717.479 108.371 716.347 108.774 715.482 109.544C714.616 110.314 714.086 111.391 714.003 112.546C713.92 113.7 714.292 114.842 715.039 115.727L711.611 118.932C711.259 118.56 710.897 118.188 710.576 117.826C705.473 112.711 699.41 108.649 692.735 105.874L694.609 101.324C695.72 101.674 696.924 101.578 697.964 101.055C699.005 100.532 699.8 99.6252 700.181 98.5262C700.563 97.4271 700.499 96.223 700.005 95.1698C699.511 94.1165 698.625 93.2973 697.535 92.8863C696.446 92.4753 695.238 92.5049 694.17 92.9688C693.102 93.4326 692.257 94.2943 691.815 95.3704C691.374 96.4466 691.37 97.6523 691.804 98.7314C692.239 99.8104 693.078 100.678 694.143 101.149L692.258 105.719C686.304 103.317 679.975 101.974 673.558 101.748L673.765 95.4827H673.91C675.06 95.3997 676.133 94.8744 676.903 94.0175C677.673 93.1605 678.08 92.0386 678.038 90.888C677.997 89.7374 677.51 88.6478 676.68 87.8485C675.85 87.0492 674.742 86.6025 673.589 86.6025C672.436 86.6025 671.328 87.0492 670.498 87.8485C669.668 88.6478 669.181 89.7374 669.139 90.888C669.098 92.0386 669.505 93.1605 670.275 94.0175C671.045 94.8744 672.118 95.3997 673.268 95.4827L673.061 101.779C672.553 101.779 672.025 101.779 671.518 101.779C665.354 101.735 659.225 102.721 653.387 104.695L651.575 99.5254C652.623 99.0849 653.458 98.2536 653.903 97.208C654.347 96.1625 654.365 94.9851 653.954 93.9261C653.543 92.8672 652.734 92.0101 651.7 91.537C650.666 91.0639 649.488 91.0121 648.416 91.3926C647.344 91.7731 646.463 92.5559 645.961 93.5747C645.458 94.5934 645.372 95.7679 645.723 96.8484C646.074 97.9289 646.832 98.8303 647.838 99.3611C648.844 99.8918 650.017 100.01 651.109 99.6908L652.91 104.86C645.871 107.376 639.42 111.298 633.951 116.389L630.679 112.904C631.269 112.266 631.66 111.47 631.803 110.613C631.947 109.756 631.837 108.876 631.488 108.081C631.139 107.285 630.564 106.609 629.836 106.134C629.107 105.659 628.256 105.407 627.386 105.408C626.661 105.407 625.946 105.581 625.303 105.915C624.66 106.25 624.108 106.735 623.694 107.33C623.28 107.924 623.017 108.61 622.927 109.328C622.837 110.047 622.922 110.776 623.176 111.454C623.431 112.132 623.846 112.739 624.386 113.221C624.926 113.704 625.576 114.049 626.279 114.226C626.982 114.403 627.717 114.407 628.422 114.238C629.127 114.07 629.781 113.732 630.327 113.256L633.588 116.73L632.48 117.764C627.932 122.297 624.211 127.587 621.484 133.397L617.342 131.474C617.5 131.018 617.581 130.539 617.58 130.057C617.578 128.959 617.171 127.9 616.435 127.084C615.7 126.268 614.689 125.751 613.595 125.634C612.502 125.516 611.404 125.805 610.511 126.446C609.618 127.088 608.994 128.035 608.758 129.107C608.522 130.18 608.691 131.301 609.232 132.257C609.773 133.213 610.649 133.936 611.691 134.287C612.733 134.637 613.868 134.592 614.878 134.159C615.888 133.725 616.703 132.935 617.166 131.939L621.308 133.841C618.313 140.399 616.642 147.482 616.389 154.685L611.056 154.509C610.992 153.354 610.478 152.269 609.625 151.485C608.771 150.701 607.645 150.281 606.486 150.313C605.328 150.346 604.227 150.828 603.419 151.658C602.61 152.488 602.158 153.6 602.158 154.758C602.158 155.915 602.61 157.027 603.419 157.857C604.227 158.687 605.328 159.169 606.486 159.202C607.645 159.234 608.771 158.814 609.625 158.03C610.478 157.247 610.992 156.162 611.056 155.006L616.389 155.181C616.389 155.698 616.389 156.215 616.389 156.722C616.382 163.137 617.493 169.504 619.672 175.539L615.291 177.142C614.854 176.123 614.054 175.303 613.046 174.839C612.037 174.375 610.893 174.302 609.833 174.632C608.774 174.963 607.875 175.674 607.31 176.628C606.745 177.582 606.555 178.712 606.777 179.798C606.998 180.884 607.615 181.85 608.508 182.508C609.401 183.166 610.507 183.47 611.612 183.36C612.717 183.251 613.741 182.737 614.488 181.917C615.235 181.096 615.65 180.029 615.654 178.92C615.656 178.476 615.593 178.034 615.467 177.607L619.848 176.005C622.374 182.756 626.209 188.943 631.134 194.212L627.696 197.417C626.855 196.621 625.736 196.183 624.577 196.198C623.418 196.212 622.31 196.678 621.489 197.495C620.668 198.313 620.199 199.417 620.181 200.575C620.163 201.732 620.598 202.851 621.393 203.693C622.188 204.535 623.281 205.035 624.44 205.085C625.598 205.135 626.73 204.732 627.595 203.962C628.461 203.192 628.991 202.115 629.074 200.96C629.157 199.806 628.785 198.664 628.038 197.779L631.466 194.574C631.828 194.946 632.18 195.318 632.501 195.68C635.947 199.14 639.836 202.13 644.067 204.572L617.072 254.262H612.226V255.689H609.845V258.481H733.201V255.689H730.83V254.262H725.984L698.948 204.572C702.577 202.482 705.957 199.988 709.023 197.138L713.403 201.801C712.546 202.56 712.019 203.622 711.933 204.763C711.848 205.903 712.212 207.032 712.947 207.909C713.682 208.786 714.731 209.343 715.87 209.46C717.01 209.578 718.15 209.247 719.049 208.538C719.948 207.829 720.535 206.799 720.685 205.665C720.835 204.531 720.536 203.383 719.853 202.466C719.169 201.548 718.153 200.933 717.023 200.751C715.892 200.569 714.734 200.834 713.796 201.491L709.385 196.797L710.493 195.763C715.044 191.23 718.769 185.94 721.5 180.13L726.367 182.384C726.284 182.723 726.238 183.069 726.232 183.418C726.229 184.536 726.645 185.614 727.398 186.442C728.152 187.269 729.187 187.785 730.302 187.888C731.417 187.991 732.53 187.674 733.423 186.999C734.315 186.324 734.923 185.341 735.125 184.241C735.328 183.142 735.112 182.006 734.519 181.058C733.926 180.11 732.999 179.418 731.92 179.118C730.842 178.817 729.69 178.931 728.691 179.436C727.692 179.941 726.918 180.801 726.522 181.846L721.728 179.644C724.719 173.085 726.387 166.003 726.636 158.8L731.886 158.976C731.911 159.854 732.194 160.705 732.7 161.423C733.206 162.141 733.913 162.694 734.732 163.013C735.551 163.332 736.446 163.403 737.306 163.217C738.165 163.031 738.951 162.596 739.564 161.967C740.177 161.337 740.591 160.541 740.754 159.679C740.916 158.816 740.821 157.924 740.479 157.115C740.137 156.306 739.564 155.616 738.831 155.13C738.099 154.645 737.239 154.386 736.359 154.385H736.38ZM725.207 156.763C725.207 157.26 725.207 157.797 725.207 158.263L709.758 157.756C709.758 157.425 709.758 157.094 709.758 156.722C709.763 152.305 708.996 147.92 707.49 143.767L721.987 138.422C724.124 144.301 725.213 150.509 725.207 156.763ZM708.992 157.735L674.531 156.608C674.519 156.391 674.481 156.176 674.417 155.967L706.776 144.067C708.252 148.137 709.005 152.434 709.002 156.763C709.002 157.084 708.992 157.415 708.992 157.735ZM634.054 155.802L668.515 156.918C668.524 157.139 668.559 157.357 668.619 157.57L636.26 169.46C634.786 165.389 634.036 161.092 634.044 156.763C634.044 156.443 634.044 156.122 634.054 155.802ZM673.879 154.902L699.02 131.37C702.316 134.92 704.894 139.074 706.61 143.602L674.252 155.492C674.15 155.282 674.025 155.084 673.879 154.902ZM673.537 154.53C673.341 154.358 673.126 154.208 672.895 154.085L685.983 122.241C690.78 124.255 695.106 127.24 698.689 131.008L673.537 154.53ZM672.429 153.899C672.248 153.837 672.06 153.796 671.87 153.775L672.988 119.366C677.292 119.536 681.534 120.446 685.528 122.055L672.429 153.899ZM671.394 153.765C671.187 153.774 670.982 153.805 670.783 153.858L659.299 121.382C663.228 120.017 667.358 119.318 671.518 119.315H672.491L671.394 153.765ZM670.358 154.023C670.131 154.122 669.919 154.251 669.726 154.406L646.138 129.302C649.825 125.898 654.155 123.262 658.875 121.548L670.358 154.023ZM669.323 154.747C669.171 154.911 669.039 155.091 668.929 155.285L637.627 140.81C639.62 136.605 642.376 132.805 645.755 129.602L669.323 154.747ZM668.722 155.781C668.64 156.005 668.585 156.237 668.556 156.474L634.106 155.347C634.286 150.513 635.412 145.76 637.42 141.358L668.722 155.781ZM668.826 158.087C668.904 158.259 669.002 158.422 669.116 158.573L668.908 158.955L644.057 182.208C640.764 178.658 638.19 174.504 636.477 169.977L668.826 158.087ZM668.153 160.341L652.548 189.063C649.539 187.288 646.793 185.103 644.388 182.57L668.153 160.341ZM669.851 159.307C669.957 159.378 670.068 159.444 670.182 159.503L657.052 191.276C655.794 190.749 654.567 190.151 653.376 189.487L669.851 159.307ZM670.638 159.689C670.822 159.751 671.013 159.793 671.207 159.813L670.089 194.222C665.784 194.059 661.541 193.15 657.549 191.534L670.638 159.689ZM671.549 194.253H670.586L671.704 159.834C671.911 159.824 672.115 159.793 672.315 159.741L683.778 192.217C679.83 193.553 675.686 194.22 671.518 194.191L671.549 194.253ZM672.781 159.565C672.947 159.493 673.107 159.407 673.257 159.307L689.628 189.497C687.885 190.474 686.063 191.304 684.182 191.979L672.781 159.565ZM675.546 161.447L696.98 184.286C695.019 186.108 692.866 187.713 690.56 189.073L675.546 161.447ZM674.614 159.72L673.993 158.583C674.06 158.495 674.118 158.402 674.169 158.304L705.471 172.779C703.48 176.985 700.727 180.788 697.353 183.997L674.614 159.72ZM674.376 157.859C674.458 157.639 674.513 157.41 674.541 157.177L708.971 158.19C708.789 163.025 707.66 167.778 705.647 172.179L674.376 157.859ZM656.773 192.041L650.891 206.34C649.092 205.598 647.336 204.755 645.631 203.817L653.024 190.221C654.24 190.877 655.491 191.464 656.773 191.979V192.041ZM657.228 192.227C661.305 193.868 665.635 194.795 670.027 194.967L669.53 210.393C663.275 210.158 657.11 208.828 651.316 206.464L657.228 192.227ZM670.524 194.988H671.559C675.788 194.993 679.987 194.294 683.985 192.92L689.162 207.498C683.5 209.449 677.55 210.442 671.559 210.434C671.062 210.434 670.524 210.434 670.068 210.434L670.524 194.988ZM684.451 192.682C686.369 191.991 688.229 191.148 690.011 190.159L697.394 203.755C694.895 205.133 692.287 206.305 689.597 207.26L684.451 192.682ZM721.832 137.998L707.335 143.343C705.591 138.722 702.964 134.484 699.6 130.864L710.897 120.297C715.671 125.425 719.39 131.439 721.842 137.998H721.832ZM709.478 118.901C709.83 119.253 710.183 119.614 710.514 119.935L699.217 130.502C695.567 126.653 691.156 123.604 686.263 121.548L692.145 107.249C698.632 109.96 704.522 113.919 709.478 118.901ZM691.699 107.063L685.818 121.362C681.755 119.723 677.439 118.796 673.061 118.622L673.568 103.196C679.791 103.42 685.927 104.728 691.699 107.063ZM671.528 103.165C672.036 103.165 672.564 103.165 673.03 103.165L672.522 118.591H671.487C667.259 118.589 663.06 119.288 659.061 120.659L653.884 106.08C659.557 104.132 665.518 103.147 671.518 103.165H671.528ZM653.438 106.267L658.616 120.845C653.799 122.59 649.381 125.279 645.621 128.754L635.038 117.485C640.33 112.542 646.572 108.725 653.387 106.267H653.438ZM633.557 118.901L634.593 117.867L645.175 129.147C641.729 132.418 638.921 136.299 636.891 140.593L622.83 134.11C625.493 128.457 629.123 123.31 633.557 118.901ZM622.654 134.513L636.715 140.996C634.667 145.49 633.516 150.34 633.329 155.274L617.87 154.778C618.114 147.775 619.74 140.888 622.654 134.513ZM617.839 156.763C617.839 156.267 617.839 155.729 617.839 155.274L633.288 155.771C633.288 156.102 633.288 156.433 633.288 156.805C633.282 161.222 634.049 165.607 635.556 169.76L621.059 175.105C618.927 169.224 617.837 163.018 617.839 156.763ZM621.204 175.529L635.701 170.184C637.448 174.803 640.075 179.041 643.436 182.663L632.149 193.23C627.371 188.105 623.652 182.09 621.204 175.529ZM633.557 194.667C633.205 194.315 632.863 193.954 632.522 193.633L643.808 183.004C646.271 185.588 649.079 187.818 652.154 189.632L644.771 203.228C640.673 200.878 636.903 198 633.557 194.667ZM724.835 254.262H618.18L644.916 205.058C646.664 206.028 648.465 206.898 650.311 207.663L648.427 212.244C647.988 212.107 647.53 212.037 647.07 212.037C645.968 212.04 644.905 212.451 644.088 213.19C643.271 213.929 642.756 214.944 642.644 216.039C642.531 217.134 642.829 218.232 643.479 219.121C644.129 220.01 645.086 220.627 646.165 220.854C647.244 221.08 648.369 220.9 649.323 220.348C650.277 219.795 650.992 218.91 651.331 217.862C651.669 216.815 651.608 215.679 651.158 214.674C650.707 213.669 649.901 212.866 648.893 212.419L650.767 207.85C656.722 210.249 663.05 211.592 669.468 211.82L669.312 216.514C668.16 216.578 667.079 217.089 666.298 217.937C665.517 218.786 665.098 219.904 665.131 221.056C665.163 222.208 665.644 223.301 666.471 224.105C667.299 224.908 668.407 225.357 669.561 225.357C670.715 225.357 671.823 224.908 672.65 224.105C673.478 223.301 673.959 222.208 673.991 221.056C674.023 219.904 673.604 218.786 672.824 217.937C672.043 217.089 670.961 216.578 669.809 216.514L669.965 211.82C670.482 211.82 671 211.82 671.507 211.82C677.671 211.845 683.796 210.842 689.628 208.852L691.233 213.412C690.236 213.88 689.447 214.699 689.017 215.712C688.587 216.725 688.546 217.86 688.903 218.901C689.26 219.942 689.989 220.815 690.951 221.352C691.912 221.89 693.038 222.054 694.113 221.813C695.189 221.573 696.137 220.944 696.777 220.049C697.417 219.153 697.703 218.053 697.581 216.96C697.459 215.866 696.937 214.857 696.115 214.124C695.294 213.391 694.23 212.986 693.128 212.988C692.642 212.987 692.159 213.068 691.699 213.226L690.094 208.687C692.859 207.701 695.539 206.495 698.109 205.079L724.835 254.262ZM698.254 203.259L690.861 189.663C693.223 188.27 695.431 186.631 697.446 184.772L708.029 196.052C705.057 198.811 701.786 201.228 698.275 203.259H698.254ZM709.458 194.667L708.422 195.701L697.84 184.421C701.292 181.155 704.101 177.273 706.123 172.975L720.196 179.458C717.535 185.111 713.908 190.257 709.478 194.667H709.458ZM720.372 179.013L706.31 172.531C708.36 168.037 709.51 163.187 709.696 158.252L725.145 158.759C724.905 165.756 723.29 172.638 720.392 179.013H720.372Z" fill="#94A5B1"/>
<path d="M804.731 191.979H747.189V276.161H804.731V191.979Z" fill="#94A5B1"/>
<path d="M853.844 224.702H796.303V275.675H853.844V224.702Z" fill="#94A5B1"/>
<path d="M605.444 217.217H573.168V260.001H605.444V217.217Z" fill="#94A5B1"/>
<path d="M816.649 111.922H775.955V276.161H816.649V111.922Z" fill="#94A5B1"/>
<path d="M883.665 276.161H829.986V180.254H870.691L883.665 276.161Z" fill="#94A5B1"/>
<path d="M907.171 254.263H860.16V276.151H907.171V254.263Z" fill="#94A5B1"/>
<path d="M807.537 77.6064H806.129V122.241H807.537V77.6064Z" fill="#94A5B1"/>
<path d="M812.27 87.1904H810.861V131.825H812.27V87.1904Z" fill="#94A5B1"/>
<path d="M803.24 93.3525H801.832V137.987H803.24V93.3525Z" fill="#94A5B1"/>
<path d="M851.296 172.51H832.088V187.615H851.296V172.51Z" fill="#94A5B1"/>
<path d="M849.205 167.123H834.201V175.612H849.205V167.123Z" fill="#94A5B1"/>
<path d="M862.614 176.936H858.928V183.036H862.614V176.936Z" fill="#94A5B1"/>
<path d="M869.18 171.362H863.92V183.025H869.18V171.362Z" fill="#94A5B1"/>
<path d="M621.794 148.968H573.002V306H621.794V148.968Z" fill="#1E4E6C"/>
<path d="M625.439 149.898H569.357V151.491H625.439V149.898Z" fill="#1E4E6C"/>
<path d="M623.917 171.962H570.869V173.544H623.917V171.962Z" fill="#1E4E6C"/>
<path d="M623.917 193.323H570.869V194.905H623.917V193.323Z" fill="#1E4E6C"/>
<path d="M623.917 214.684H570.869V216.265H623.917V214.684Z" fill="#1E4E6C"/>
<path d="M623.917 236.045H570.869V237.627H623.917V236.045Z" fill="#1E4E6C"/>
<path d="M623.917 257.405H570.869V258.987H623.917V257.405Z" fill="#1E4E6C"/>
<path d="M623.917 278.767H570.869V280.349H623.917V278.767Z" fill="#1E4E6C"/>
<path d="M627.292 145.566H567.504V149.909H627.292V145.566Z" fill="#1E4E6C"/>
<path opacity="0.29" d="M582.466 156.649H577.393V169.191H582.466V156.649Z" fill="#1E4E6C"/>
<path d="M593.804 156.649H588.73V169.191H593.804V156.649Z" fill="#1E4E6C"/>
<path d="M605.144 156.649H600.07V169.191H605.144V156.649Z" fill="#1E4E6C"/>
<path d="M616.482 156.649H611.408V169.191H616.482V156.649Z" fill="#1E4E6C"/>
<path d="M582.466 177.163H577.393V189.705H582.466V177.163Z" fill="#1E4E6C"/>
<path opacity="0.29" d="M593.804 177.163H588.73V189.705H593.804V177.163Z" fill="#1E4E6C"/>
<path d="M605.144 177.163H600.07V189.705H605.144V177.163Z" fill="#1E4E6C"/>
<path d="M616.482 177.163H611.408V189.705H616.482V177.163Z" fill="#1E4E6C"/>
<path d="M582.466 198.523H577.393V211.065H582.466V198.523Z" fill="#1E4E6C"/>
<path d="M593.804 198.523H588.73V211.065H593.804V198.523Z" fill="#1E4E6C"/>
<path d="M605.144 198.523H600.07V211.065H605.144V198.523Z" fill="#1E4E6C"/>
<path opacity="0.29" d="M616.482 198.523H611.408V211.065H616.482V198.523Z" fill="#1E4E6C"/>
<path d="M582.466 219.885H577.393V232.426H582.466V219.885Z" fill="#1E4E6C"/>
<path opacity="0.29" d="M593.804 219.885H588.73V232.426H593.804V219.885Z" fill="#1E4E6C"/>
<path opacity="0.29" d="M605.144 219.885H600.07V232.426H605.144V219.885Z" fill="#1E4E6C"/>
<path d="M616.482 219.885H611.408V232.426H616.482V219.885Z" fill="#1E4E6C"/>
<path opacity="0.29" d="M582.466 241.245H577.393V253.787H582.466V241.245Z" fill="#1E4E6C"/>
<path d="M593.804 241.245H588.73V253.787H593.804V241.245Z" fill="#1E4E6C"/>
<path d="M605.144 241.245H600.07V253.787H605.144V241.245Z" fill="#1E4E6C"/>
<path d="M616.482 241.245H611.408V253.787H616.482V241.245Z" fill="#1E4E6C"/>
<path d="M582.466 262.606H577.393V275.148H582.466V262.606Z" fill="#1E4E6C"/>
<path d="M593.804 262.606H588.73V275.148H593.804V262.606Z" fill="#1E4E6C"/>
<path opacity="0.29" d="M605.144 262.606H600.07V275.148H605.144V262.606Z" fill="#1E4E6C"/>
<path d="M616.482 262.606H611.408V275.148H616.482V262.606Z" fill="#1E4E6C"/>
<path d="M582.466 283.967H577.393V296.508H582.466V283.967Z" fill="#1E4E6C"/>
<path opacity="0.29" d="M593.804 283.967H588.73V296.508H593.804V283.967Z" fill="#1E4E6C"/>
<path d="M605.144 283.967H600.07V296.508H605.144V283.967Z" fill="#1E4E6C"/>
<path opacity="0.29" d="M616.482 283.967H611.408V296.508H616.482V283.967Z" fill="#1E4E6C"/>
<path d="M592.677 139.58H576.078V147.738H592.677V139.58Z" fill="#1E4E6C"/>
<path d="M593.805 139.342H574.959V140.738H593.805V139.342Z" fill="#1E4E6C"/>
<path d="M503.067 306H438.08V156.805L503.067 140.924V306Z" fill="#1E4E6C"/>
<path d="M440.926 154.179H435.221V306.01H440.926V154.179Z" fill="#1E4E6C"/>
<path d="M457.185 149.898H451.469V306H457.185V149.898Z" fill="#1E4E6C"/>
<path d="M473.42 145.452H467.715V306H473.42V145.452Z" fill="#1E4E6C"/>
<path d="M489.676 141.834H483.971V306H489.676V141.834Z" fill="#1E4E6C"/>
<path d="M505.924 137.978H500.219V306H505.924V137.978Z" fill="#1E4E6C"/>
<path opacity="0.29" d="M449.988 166.917H442.408V178.445H449.988V166.917Z" fill="#1E4E6C"/>
<path opacity="0.29" d="M466.244 166.917H458.664V178.445H466.244V166.917Z" fill="#1E4E6C"/>
<path d="M482.492 166.917H474.912V178.445H482.492V166.917Z" fill="#1E4E6C"/>
<path opacity="0.29" d="M498.738 166.917H491.158V178.445H498.738V166.917Z" fill="#1E4E6C"/>
<path d="M449.988 186.995H442.408V198.523H449.988V186.995Z" fill="#1E4E6C"/>
<path d="M466.244 186.995H458.664V198.523H466.244V186.995Z" fill="#1E4E6C"/>
<path opacity="0.29" d="M482.492 186.995H474.912V198.523H482.492V186.995Z" fill="#1E4E6C"/>
<path opacity="0.29" d="M498.738 186.995H491.158V198.523H498.738V186.995Z" fill="#1E4E6C"/>
<path opacity="0.29" d="M449.988 207.074H442.408V218.602H449.988V207.074Z" fill="#1E4E6C"/>
<path opacity="0.29" d="M466.244 207.074H458.664V218.602H466.244V207.074Z" fill="#1E4E6C"/>
<path opacity="0.29" d="M482.492 207.074H474.912V218.602H482.492V207.074Z" fill="#1E4E6C"/>
<path d="M498.738 207.074H491.158V218.602H498.738V207.074Z" fill="#1E4E6C"/>
<path opacity="0.29" d="M449.988 227.143H442.408V238.671H449.988V227.143Z" fill="#1E4E6C"/>
<path d="M466.244 227.143H458.664V238.671H466.244V227.143Z" fill="#1E4E6C"/>
<path opacity="0.29" d="M482.492 227.143H474.912V238.671H482.492V227.143Z" fill="#1E4E6C"/>
<path opacity="0.29" d="M498.738 227.143H491.158V238.671H498.738V227.143Z" fill="#1E4E6C"/>
<path opacity="0.29" d="M449.988 247.222H442.408V258.75H449.988V247.222Z" fill="#1E4E6C"/>
<path opacity="0.29" d="M466.244 247.222H458.664V258.75H466.244V247.222Z" fill="#1E4E6C"/>
<path d="M482.492 247.222H474.912V258.75H482.492V247.222Z" fill="#1E4E6C"/>
<path opacity="0.29" d="M498.738 247.222H491.158V258.75H498.738V247.222Z" fill="#1E4E6C"/>
<path d="M449.988 267.3H442.408V278.828H449.988V267.3Z" fill="#1E4E6C"/>
<path d="M466.244 267.3H458.664V278.828H466.244V267.3Z" fill="#1E4E6C"/>
<path opacity="0.29" d="M482.492 267.3H474.912V278.828H482.492V267.3Z" fill="#1E4E6C"/>
<path opacity="0.29" d="M498.738 267.3H491.158V278.828H498.738V267.3Z" fill="#1E4E6C"/>
<path opacity="0.29" d="M449.988 287.379H442.408V298.907H449.988V287.379Z" fill="#1E4E6C"/>
<path d="M466.244 287.379H458.664V298.907H466.244V287.379Z" fill="#1E4E6C"/>
<path opacity="0.29" d="M482.492 287.379H474.912V298.907H482.492V287.379Z" fill="#1E4E6C"/>
<path d="M498.738 287.379H491.158V298.907H498.738V287.379Z" fill="#1E4E6C"/>
<path d="M252.678 163.949V165.5H251.124V169.915H278.326V306H233.697V177.008V169.915V165.5H232.082V163.949H252.678Z" fill="#1E4E6C"/>
<path d="M366.931 225.768H328.701V306.01H366.931V225.768Z" fill="#1E4E6C"/>
<path d="M193.168 207.374H162.094V306.01H193.168V207.374Z" fill="#1E4E6C"/>
<path d="M220.868 227.918H187.008V306H220.868V227.918Z" fill="#1E4E6C"/>
<path d="M187.018 203.414H173.277V215.221H187.018V203.414Z" fill="#1E4E6C"/>
<path d="M225.435 226.636H189.338V229.52H225.435V226.636Z" fill="#1E4E6C"/>
<path d="M255.193 261.407H217.232V306H255.193V261.407Z" fill="#1E4E6C"/>
<path d="M125.417 225.137H94.5391V306H125.417V225.137Z" fill="#1E4E6C"/>
<path d="M108.362 265.439H67.7402V306H108.362V265.439Z" fill="#1E4E6C"/>
<path d="M48.4184 258.802H23.0078V306H48.4184V258.802Z" fill="#1E4E6C"/>
<path d="M103.538 291.215H43.4805V306H103.538V291.215Z" fill="#1E4E6C"/>
<path d="M30.7847 286.438H0V306H30.7847V286.438Z" fill="#1E4E6C"/>
<path d="M173.267 276.161H125.418V306H173.267V276.161Z" fill="#1E4E6C"/>
<path d="M340.341 293.148H265.797V306H340.341V293.148Z" fill="#1E4E6C"/>
<path d="M472.499 293.148H397.955V306H472.499V293.148Z" fill="#1E4E6C"/>
<path d="M337.43 255.399H309.1L297.119 299.569H337.43V255.399Z" fill="#1E4E6C"/>
<path d="M351.316 191.131H350.529V240.128H351.316V191.131Z" fill="#1E4E6C"/>
<path d="M355.531 207.715H354.475V236.634H355.531V207.715Z" fill="#1E4E6C"/>
<path d="M363.163 212.833H348.832V227.143H363.163V212.833Z" fill="#1E4E6C"/>
<path d="M365.388 211.727H346.408V213.009H365.388V211.727Z" fill="#1E4E6C"/>
<path d="M406.29 264.612H359.973V306H406.29V264.612Z" fill="#1E4E6C"/>
<path d="M427.185 219.058H397.426V298.908H427.185V219.058Z" fill="#1E4E6C"/>
<path d="M561.187 234.07H513.648V306H561.187V234.07Z" fill="#1E4E6C"/>
<path d="M552.946 279.501H498.738V306.011H552.946V279.501Z" fill="#1E4E6C"/>
<path d="M593.804 296.519H558.557V306.01H593.804V296.519Z" fill="#1E4E6C"/>
<path d="M670.151 279.501H612.848V306.011H670.151V279.501Z" fill="#1E4E6C"/>
<path d="M635.669 306H706.982V210.104H635.669V306Z" fill="#1E4E6C"/>
<path d="M633.836 210.094H711.145V206.413H633.836V210.094Z" fill="#1E4E6C"/>
<path d="M672.491 215.883H703.824V196.435H672.491V215.883Z" fill="#1E4E6C"/>
<path d="M656.99 208.264H662.25V196.436H656.99V208.264Z" fill="#1E4E6C"/>
<path d="M645.93 208.264H651.719V196.436H645.93V208.264Z" fill="#1E4E6C"/>
<path d="M756.011 306H812.455V165.945H756.011V306Z" fill="#1E4E6C"/>
<path d="M754.397 167.485H814.051V163.525H754.397V167.485Z" fill="#1E4E6C"/>
<path d="M757.897 177.276H810.551V158.459H757.897V177.276Z" fill="#1E4E6C"/>
<path d="M785.669 171.321H806.523V150.767H785.669V171.321Z" fill="#1E4E6C"/>
<path d="M794.459 156.567H806.522V145.742H797.866L794.459 156.567Z" fill="#1E4E6C"/>
<path d="M800.486 160.857H801.656V136.757H800.486V160.857Z" fill="#1E4E6C"/>
<path d="M800.03 135.506C800.071 135.696 800.164 135.87 800.3 136.009C800.435 136.149 800.608 136.247 800.796 136.293C800.985 136.339 801.183 136.331 801.368 136.27C801.553 136.209 801.716 136.097 801.84 135.947C801.964 135.798 802.043 135.616 802.069 135.423C802.094 135.231 802.065 135.035 801.984 134.859C801.903 134.682 801.774 134.532 801.611 134.425C801.449 134.318 801.26 134.259 801.065 134.255C800.763 134.286 800.485 134.435 800.291 134.669C800.098 134.903 800.004 135.203 800.03 135.506Z" fill="#1E4E6C"/>
<path d="M829.986 248.183H804.721V306H829.986V248.183Z" fill="#1E4E6C"/>
<path d="M761.573 219.988H732.766V306H761.573V219.988Z" fill="#1E4E6C"/>
<path d="M747.19 306H706.6V260.001L740.853 275.148L747.19 306Z" fill="#1E4E6C"/>
<path d="M883.667 281.021H821.693V306H883.667V281.021Z" fill="#1E4E6C"/>
<path d="M896.775 206.268H860.771V306H896.775V206.268Z" fill="#1E4E6C"/>
<path d="M947.999 287.379H888.355V306H947.999V287.379Z" fill="#1E4E6C"/>
<path d="M898.421 204.438H858.928V207.705H898.421V204.438Z" fill="#1E4E6C"/>
<path d="M891.949 190.366H891.162V210.466H891.949V190.366Z" fill="#1E4E6C"/>
<path d="M886.689 192.909H885.902V209.028H886.689V192.909Z" fill="#1E4E6C"/>
<path d="M910.101 243.841H894.051V289.53H916.945L910.101 243.841Z" fill="#1E4E6C"/>
</g>
<defs>
<clipPath id="clip0_42_1356">
<rect width="948" height="306" fill="white"/>
</clipPath>
</defs>
</svg>
