<svg width="288" height="112" viewBox="0 0 288 112" fill="none" xmlns="http://www.w3.org/2000/svg">
<path d="M3.09375 110.156C2.15625 110.156 1.6875 109.688 1.6875 108.75C1.6875 108.438 1.94792 107.719 2.46875 106.594C2.96875 105.51 3.36458 103.958 3.65625 101.938C3.90625 100.208 4.03125 97.3021 4.03125 93.2188V86.9375C4.03125 85.8958 4.30208 85.125 4.84375 84.625C5.40625 84.1042 6.26042 83.8438 7.40625 83.8438H25.4062C26.4688 83.8438 27.2396 84.0625 27.7188 84.5C28.1979 84.9375 28.4167 85.6354 28.375 86.5938V89.25C28.375 90.2292 28.1354 90.9479 27.6562 91.4062C27.1979 91.8438 26.4479 92.0417 25.4062 92H19.4688V95.2188H28.4688C29.4062 95.2188 29.875 95.6146 29.875 96.4062C29.875 97.1771 29.4062 97.5625 28.4688 97.5625H19.4688V100.781H24.5938C25.8229 100.781 26.7083 101.021 27.25 101.5C27.8125 101.979 28.0521 102.74 27.9688 103.781V107.062C28.1562 109.229 27.0312 110.229 24.5938 110.062H12.0938C9.65625 110.229 8.53125 109.229 8.71875 107.062V103.781C8.53125 101.656 9.65625 100.656 12.0938 100.781H16.875V97.5625H8.875C7.91667 97.5625 7.4375 97.1667 7.4375 96.375C7.4375 95.6042 7.91667 95.2188 8.875 95.2188H16.875V92H6.65625V97.5C6.65625 101.125 6.22917 104.24 5.375 106.844C4.66667 109.052 3.90625 110.156 3.09375 110.156ZM24.8125 89.75C25.4583 89.75 25.7917 89.4062 25.8125 88.7188V87.1875C25.8125 86.5417 25.4792 86.1979 24.8125 86.1562H8.0625C7.14583 86.1562 6.6875 86.5312 6.6875 87.2812V89.75H24.8125ZM11.3125 106.562C11.3125 107.396 11.7188 107.802 12.5312 107.781H24.0625C24.9167 107.781 25.3229 107.375 25.2812 106.562V104.281C25.2812 103.448 24.875 103.042 24.0625 103.062H12.5312C11.6979 103.062 11.2917 103.469 11.3125 104.281V106.562ZM44.7188 110.875C43.8438 110.812 43.4062 110.417 43.4062 109.688C43.4062 109.188 43.5312 108.833 43.7812 108.625C44.0521 108.417 44.4688 108.333 45.0312 108.375C45.2812 108.396 45.6146 108.406 46.0312 108.406C47.6146 108.406 48.6042 108.115 49 107.531C49.375 106.927 49.5625 105.917 49.5625 104.5C49.5625 103.812 49.5208 103.135 49.4375 102.469C47.1458 104.635 44.4896 106.323 41.4688 107.531C40.0312 108.115 38.7708 108.562 37.6875 108.875C36.6042 109.188 35.8333 109.344 35.375 109.344C34.6458 109.344 34.2812 109.01 34.2812 108.344C34.2812 108.01 34.3542 107.76 34.5 107.594C34.6458 107.406 34.9271 107.26 35.3438 107.156C37.9896 106.49 40.4688 105.562 42.7812 104.375C45.1146 103.167 47.1667 101.75 48.9375 100.125C48.7292 99.4375 48.4479 98.8125 48.0938 98.25C47.2604 98.9583 46.2292 99.6667 45 100.375C43.7917 101.062 42.625 101.615 41.5 102.031C40.0625 102.594 38.8125 103.01 37.75 103.281C36.6875 103.552 35.9375 103.688 35.5 103.688C34.8333 103.688 34.5 103.333 34.5 102.625C34.5 102.292 34.625 102.042 34.875 101.875C35.1458 101.688 35.6667 101.5 36.4375 101.312C38.6042 100.75 40.5729 100.052 42.3438 99.2188C44.1354 98.3646 45.6667 97.4271 46.9375 96.4062L45.5625 95.0312C43.9375 95.9688 42.0208 96.8333 39.8125 97.625C38.0833 98.25 36.8438 98.5625 36.0938 98.5625C35.3438 98.5625 34.9688 98.1875 34.9688 97.4375C34.9688 97.1458 35.0521 96.9271 35.2188 96.7812C35.4062 96.6146 35.6771 96.4792 36.0312 96.375C37.9271 95.8958 39.6667 95.3438 41.25 94.7188C42.8333 94.0938 44.4271 93.3125 46.0312 92.375H39.125C38.2708 92.375 37.8438 92 37.8438 91.25C37.8438 90.5 38.2708 90.125 39.125 90.125H56.8125C57.6875 90.125 58.125 90.5 58.125 91.25C58.125 92 57.6875 92.375 56.8125 92.375H49.5625C48.9583 92.8333 48.2188 93.3542 47.3438 93.9375C48.7812 95.125 49.9792 96.6667 50.9375 98.5625C52.7708 97.5625 54.7708 96.1458 56.9375 94.3125C57.2917 94 57.6458 93.8438 58 93.8438C58.3333 93.8438 58.6354 93.9792 58.9062 94.25C59.1146 94.4583 59.2188 94.6979 59.2188 94.9688C59.2188 95.3646 59 95.75 58.5625 96.125C56.875 97.5417 54.9062 98.75 52.6562 99.75C54.4896 102.458 57.2708 104.615 61 106.219C61.75 106.552 62.125 106.99 62.125 107.531C62.125 107.656 62.0938 107.812 62.0312 108C61.9479 108.292 61.7917 108.521 61.5625 108.688C61.3542 108.854 61.1042 108.938 60.8125 108.938C60.6042 108.938 60.3646 108.885 60.0938 108.781C58.8646 108.281 57.625 107.542 56.375 106.562C55.375 105.771 54.5104 104.958 53.7812 104.125C53.0729 103.271 52.3958 102.271 51.75 101.125C51.9792 102.375 52.0938 103.594 52.0938 104.781C52.0938 107.031 51.6562 108.656 50.7812 109.656C50.0521 110.51 48.5521 110.938 46.2812 110.938C45.9896 110.938 45.4688 110.917 44.7188 110.875ZM34.2812 88.625C34.2812 87.4792 34.5417 86.6562 35.0625 86.1562C35.6667 85.5938 36.5104 85.3333 37.5938 85.375H46.3438V83.875C46.3438 82.9792 46.8229 82.5312 47.7812 82.5312C48.7396 82.5312 49.2188 82.9792 49.2188 83.875V85.375H58.375C59.4792 85.375 60.3229 85.6354 60.9062 86.1562C61.4271 86.6146 61.6875 87.4062 61.6875 88.5312V90.75C61.6875 91.8333 61.2396 92.375 60.3438 92.375C59.4479 92.375 59 91.8333 59 90.75V88.875C59 88.0417 58.5938 87.6354 57.7812 87.6562H38.1562C37.3438 87.6562 36.9479 88.0625 36.9688 88.875V90.75C36.9688 91.8333 36.5208 92.375 35.625 92.375C34.7292 92.375 34.2812 91.8333 34.2812 90.75V88.625ZM91.1875 110.969C90.8542 110.969 90.1667 110.667 89.125 110.062C87.625 109.188 85.4479 108.094 82.5938 106.781C79.1562 109.406 74.5729 110.719 68.8438 110.719C68.2188 110.719 67.75 110.604 67.4375 110.375C67.1458 110.146 67 109.792 67 109.312C67 108.833 67.1771 108.5 67.5312 108.312C67.8021 108.188 68.7292 108.104 70.3125 108.062C72.3125 108.021 74.1146 107.792 75.7188 107.375C77.3438 106.938 78.7292 106.365 79.875 105.656C78.3125 104.99 76.0417 104.219 73.0625 103.344C72.4792 103.177 72.0417 102.958 71.75 102.688C71.4583 102.417 71.3125 102.073 71.3125 101.656C71.3125 101.281 71.4375 100.833 71.6875 100.312L73.4688 96.7812H67.7188C66.7396 96.7812 66.25 96.3958 66.25 95.625C66.25 94.8333 66.7396 94.4375 67.7188 94.4375H74.625L76.5 90C76.7708 89.3333 77.1771 89 77.7188 89C78.1771 89 78.5312 89.1146 78.7812 89.3438C79.0312 89.5521 79.1562 89.8646 79.1562 90.2812C79.1562 90.5729 78.6042 91.9583 77.5 94.4375H92.375C93.3542 94.4375 93.8438 94.8333 93.8438 95.625C93.8438 96.3958 93.3542 96.7812 92.375 96.7812H88.3438C87.6562 100.031 86.4271 102.698 84.6562 104.781C86.5104 105.49 88.8438 106.573 91.6562 108.031C92.3646 108.406 92.7188 108.885 92.7188 109.469C92.7188 109.906 92.5833 110.26 92.3125 110.531C92.0417 110.823 91.6667 110.969 91.1875 110.969ZM66.4375 88.9062C66.3542 87.7812 66.5625 86.9688 67.0625 86.4688C67.5625 85.9688 68.375 85.7604 69.5 85.8438H78.4688V83.9062C78.4688 83.0104 78.9271 82.5625 79.8438 82.5625C80.7396 82.5625 81.1875 83.0104 81.1875 83.9062V85.8438H90.5625C91.6875 85.7604 92.5 85.9688 93 86.4688C93.5 86.9688 93.7083 87.7812 93.625 88.9062V91.6562C93.625 92.1562 93.5208 92.5208 93.3125 92.75C93.1042 92.9792 92.7917 93.0938 92.375 93.0938C91.9583 93.0938 91.6458 92.9792 91.4375 92.75C91.2292 92.5208 91.125 92.1562 91.125 91.6562V89.4375C91.125 89 91.0104 88.6667 90.7812 88.4375C90.5521 88.2083 90.2292 88.1042 89.8125 88.125H70.25C69.3542 88.125 68.9271 88.5625 68.9688 89.4375V91.6562C68.9688 92.6146 68.5521 93.0938 67.7188 93.0938C66.8646 93.0938 66.4375 92.6146 66.4375 91.6562V88.9062ZM74.5625 100.312C74.4792 100.479 74.4375 100.646 74.4375 100.812C74.4375 101.167 74.6562 101.406 75.0938 101.531C76.4896 101.906 78.5938 102.583 81.4062 103.562C81.6354 103.625 81.8958 103.708 82.1875 103.812C83.8958 102.167 85.0625 99.8229 85.6875 96.7812H76.375L74.5625 100.312ZM100.594 109.906C99.5729 109.906 99.0625 109.5 99.0625 108.688C99.0625 107.875 99.5729 107.469 100.594 107.469H110.625V102.531H103.844C102.823 102.531 102.312 102.125 102.312 101.312C102.312 100.5 102.823 100.094 103.844 100.094H110.625V95.8125H103.938C102.979 95.8125 102.5 95.4375 102.5 94.6875C102.5 93.8958 102.979 93.5 103.938 93.5H120.156C121.115 93.5 121.594 93.8958 121.594 94.6875C121.594 95.0833 121.479 95.375 121.25 95.5625C121.021 95.7292 120.656 95.8125 120.156 95.8125H113.156V100.094H120.188C121.188 100.094 121.688 100.5 121.688 101.312C121.688 102.125 121.188 102.531 120.188 102.531H113.156V107.469H123.406C124.427 107.469 124.938 107.885 124.938 108.719C124.938 109.51 124.427 109.906 123.406 109.906H100.594ZM97.8438 93.9375C97.8438 93.375 98.1771 92.9583 98.8438 92.6875C103.281 90.9792 107.021 88.4375 110.062 85.0625H104.188C103.188 85.0625 102.688 84.6562 102.688 83.8438C102.688 83.0312 103.188 82.625 104.188 82.625H110.844C111.448 82.625 111.948 82.7083 112.344 82.875C112.76 83.0417 113.135 83.3333 113.469 83.75C114.948 85.6458 116.583 87.2396 118.375 88.5312C120.188 89.8229 122.385 90.9062 124.969 91.7812C125.76 92.0312 126.156 92.4688 126.156 93.0938C126.156 93.1771 126.135 93.3229 126.094 93.5312C125.927 94.2396 125.521 94.5938 124.875 94.5938C124.708 94.5938 124.51 94.5625 124.281 94.5C121.781 93.6875 119.521 92.5417 117.5 91.0625C115.479 89.5625 113.781 87.8646 112.406 85.9688C110.906 87.8438 109.052 89.5938 106.844 91.2188C104.635 92.8229 102.302 94.1042 99.8438 95.0625C99.5312 95.1667 99.2708 95.2188 99.0625 95.2188C98.7083 95.2188 98.4167 95.1146 98.1875 94.9062C97.9583 94.6771 97.8438 94.3542 97.8438 93.9375ZM133.469 109.781C131.781 109.781 130.938 108.969 130.938 107.344V102.969C130.938 101.323 131.781 100.5 133.469 100.5H137.156C138.865 100.5 139.719 101.323 139.719 102.969V107.281C139.719 108.948 138.865 109.781 137.156 109.781H133.469ZM129.688 89.2188C129.688 88.4479 130.135 88.0625 131.031 88.0625H139.438C140.354 88.0625 140.812 88.4479 140.812 89.2188C140.812 89.9896 140.354 90.375 139.438 90.375H131.031C130.135 90.375 129.688 89.9896 129.688 89.2188ZM130.812 85C130.812 84.2292 131.271 83.8438 132.188 83.8438H138.375C139.312 83.8438 139.781 84.2292 139.781 85C139.781 85.7708 139.312 86.1562 138.375 86.1562H132.188C131.271 86.1562 130.812 85.7708 130.812 85ZM130.906 97.4688C130.906 96.7188 131.344 96.3438 132.219 96.3438H138.281C139.198 96.3438 139.656 96.7188 139.656 97.4688C139.656 97.8229 139.531 98.1042 139.281 98.3125C139.052 98.5 138.719 98.5938 138.281 98.5938H132.219C131.344 98.5938 130.906 98.2188 130.906 97.4688ZM130.906 93.375C130.906 92.625 131.344 92.25 132.219 92.25H138.281C138.719 92.25 139.052 92.3542 139.281 92.5625C139.531 92.75 139.656 93.0208 139.656 93.375C139.656 93.7292 139.531 94.0104 139.281 94.2188C139.052 94.4062 138.719 94.5 138.281 94.5H132.219C131.344 94.5 130.906 94.125 130.906 93.375ZM133.281 106.812C133.281 107.083 133.354 107.292 133.5 107.438C133.646 107.583 133.844 107.656 134.094 107.656H136.5C137.062 107.656 137.344 107.375 137.344 106.812V103.438C137.344 102.896 137.062 102.625 136.5 102.625H134.094C133.844 102.625 133.646 102.698 133.5 102.844C133.354 102.969 133.281 103.167 133.281 103.438V106.812ZM140.312 99.5312C140.312 98.7396 140.781 98.3438 141.719 98.3438H147.969V86.375H142.438C141.5 86.375 141.031 85.9792 141.031 85.1875C141.031 84.3958 141.5 84 142.438 84H156.125C157.083 84 157.562 84.3958 157.562 85.1875C157.562 85.9792 157.083 86.375 156.125 86.375H150.5V98.3438H156.719C157.677 98.3438 158.156 98.7396 158.156 99.5312C158.156 100.323 157.677 100.719 156.719 100.719H150.5V109.562C150.5 110.062 150.396 110.427 150.188 110.656C149.979 110.885 149.656 111 149.219 111C148.385 111 147.969 110.521 147.969 109.562V100.719H141.719C141.24 100.719 140.885 100.615 140.656 100.406C140.427 100.198 140.312 99.9062 140.312 99.5312ZM141.375 95.0625C141.312 94.8125 141.438 94.4375 141.75 93.9375C142.75 92.3333 143.542 90.7292 144.125 89.125C144.229 88.8125 144.385 88.5833 144.594 88.4375C144.802 88.2917 145.083 88.2188 145.438 88.2188C146.042 88.2188 146.385 88.5312 146.469 89.1562C146.531 89.7396 146.062 91.0521 145.062 93.0938C144.062 95.0521 143.292 96.0625 142.75 96.125C142.667 96.1458 142.562 96.1562 142.438 96.1562C141.812 96.1562 141.458 95.7917 141.375 95.0625ZM151.938 89.3438C152.021 88.6979 152.375 88.375 153 88.375C153.542 88.375 153.99 88.75 154.344 89.5C154.51 89.8958 154.719 90.3021 154.969 90.7188C155.24 91.1354 155.427 91.4271 155.531 91.5938C156.031 92.3646 156.49 93.0312 156.906 93.5938C157.281 94.1146 157.438 94.5417 157.375 94.875C157.312 95.6667 156.865 96.0208 156.031 95.9375C155.51 95.875 154.677 94.875 153.531 92.9375C152.406 91.0208 151.875 89.8229 151.938 89.3438ZM174.75 110C173.729 110 172.99 109.771 172.531 109.312C172.073 108.854 171.875 108.125 171.938 107.125V100.062C171.938 99.0208 172.156 98.2708 172.594 97.8125C173.052 97.3333 173.771 97.125 174.75 97.1875H178.594V91.2812H171.625C170.646 91.2812 170.156 90.8646 170.156 90.0312C170.156 89.1979 170.646 88.7812 171.625 88.7812H178.594V83.9375C178.594 83 179.052 82.5312 179.969 82.5312C180.844 82.5312 181.281 83 181.281 83.9375V88.7812H188.469C189.49 88.7812 190 89.1979 190 90.0312C190 90.8646 189.49 91.2812 188.469 91.2812H181.281V97.1875H185.438C186.479 97.1875 187.24 97.4167 187.719 97.875C188.198 98.3333 188.406 99.0729 188.344 100.094V107.094C188.344 108.135 188.115 108.896 187.656 109.375C187.198 109.854 186.458 110.062 185.438 110H174.75ZM161.719 97.6562C161.719 97.2812 161.927 96.7708 162.344 96.125C164.969 92.2083 166.906 88.3229 168.156 84.4688C168.594 83.1771 169.177 82.5312 169.906 82.5312C170.823 82.5312 171.281 82.9271 171.281 83.7188C171.281 83.9271 171.188 84.2708 171 84.75C170.396 86.3333 169.594 88.1667 168.594 90.25V109.5C168.594 110.542 168.167 111.062 167.312 111.062C166.458 111.062 166.031 110.542 166.031 109.5V94.9688C165.281 96.3021 164.635 97.3125 164.094 98C163.552 98.6667 163.135 99 162.844 99C162.094 99 161.719 98.5521 161.719 97.6562ZM174.594 106.406C174.594 107.115 174.969 107.49 175.719 107.531H184.531C185.26 107.531 185.646 107.146 185.688 106.375V100.812C185.688 100.104 185.302 99.7292 184.531 99.6875H175.719C174.99 99.6875 174.615 100.083 174.594 100.875V106.406ZM202.938 109.719C202.688 109.719 202.396 109.583 202.062 109.312C201.729 109.062 201.385 108.677 201.031 108.156L200.469 107.5C200.156 107.125 200 106.823 200 106.594C200 105.844 200.406 105.469 201.219 105.469C201.719 105.469 202.354 105.885 203.125 106.719C203.896 107.552 204.281 108.146 204.281 108.5C204.281 109.312 203.833 109.719 202.938 109.719ZM193.906 104.062C193.906 103.333 194.333 102.969 195.188 102.969H213V100.844C207.146 101.177 201.354 101.448 195.625 101.656C195.167 101.677 194.812 101.594 194.562 101.406C194.333 101.219 194.219 100.948 194.219 100.594C194.219 99.8646 194.625 99.4896 195.438 99.4688C196.708 99.4271 198.698 99.3854 201.406 99.3438C202.51 99.3021 204.188 99.2604 206.438 99.2188V97.5625H198.938C197.979 97.5625 197.281 97.3542 196.844 96.9375C196.427 96.5208 196.25 95.8542 196.312 94.9375V90.7812C196.312 89.8438 196.521 89.1667 196.938 88.75C197.354 88.3125 198.021 88.125 198.938 88.1875H206.438V86.8125H195.156C194.74 86.8125 194.427 86.7292 194.219 86.5625C194.031 86.3958 193.938 86.125 193.938 85.75C193.938 85.0417 194.344 84.6875 195.156 84.6875H206.438V83.5625C206.438 82.7708 206.854 82.375 207.688 82.375C208.521 82.375 208.938 82.7708 208.938 83.5625V84.6875H220.5C221.312 84.6875 221.719 85.0417 221.719 85.75C221.719 86.4583 221.312 86.8125 220.5 86.8125H208.938V88.1875H216.688C217.625 88.1875 218.302 88.3958 218.719 88.8125C219.135 89.2083 219.323 89.8646 219.281 90.7812V94.9375C219.281 95.875 219.073 96.5625 218.656 97C218.26 97.4167 217.604 97.6042 216.688 97.5625H216.656C217.26 97.8542 217.927 98.2188 218.656 98.6562C219.406 99.0729 220.052 99.4479 220.594 99.7812C221.135 100.115 221.406 100.49 221.406 100.906C221.406 101.281 221.302 101.573 221.094 101.781C220.885 101.99 220.615 102.094 220.281 102.094C220.115 102.094 219.885 102.01 219.594 101.844C219.302 101.656 218.667 101.24 217.688 100.594C217.188 100.635 216.458 100.677 215.5 100.719V102.969H220.938C221.75 102.969 222.156 103.333 222.156 104.062C222.156 104.792 221.75 105.156 220.938 105.156H215.5V108.625C215.5 109.375 215.292 109.948 214.875 110.344C214.479 110.76 213.906 110.969 213.156 110.969H209.531C208.615 110.969 208.156 110.583 208.156 109.812C208.156 109.396 208.26 109.083 208.469 108.875C208.698 108.688 209.052 108.594 209.531 108.594H212.219C212.74 108.594 213 108.333 213 107.812V105.156H195.188C194.333 105.156 193.906 104.792 193.906 104.062ZM198.812 94.7812C198.812 95.3021 199.073 95.5625 199.594 95.5625H206.438V93.8125H198.812V94.7812ZM206.438 91.875V90.1875H199.594C199.073 90.1875 198.812 90.4479 198.812 90.9688V91.875H206.438ZM215.25 99.0312C214.833 98.7188 214.625 98.4062 214.625 98.0938C214.625 98.0521 214.646 97.9479 214.688 97.7812C214.729 97.6771 214.771 97.6042 214.812 97.5625H208.938V99.1562L215.25 99.0312ZM216 95.5625C216.521 95.5625 216.781 95.3021 216.781 94.7812V93.8125H208.938V95.5625H216ZM216.781 91.875V90.9688C216.781 90.4479 216.521 90.1875 216 90.1875H208.938V91.875H216.781ZM236.719 110.875C235.844 110.812 235.406 110.417 235.406 109.688C235.406 109.188 235.531 108.833 235.781 108.625C236.052 108.417 236.469 108.333 237.031 108.375C237.281 108.396 237.615 108.406 238.031 108.406C239.615 108.406 240.604 108.115 241 107.531C241.375 106.927 241.562 105.917 241.562 104.5C241.562 103.812 241.521 103.135 241.438 102.469C239.146 104.635 236.49 106.323 233.469 107.531C232.031 108.115 230.771 108.562 229.688 108.875C228.604 109.188 227.833 109.344 227.375 109.344C226.646 109.344 226.281 109.01 226.281 108.344C226.281 108.01 226.354 107.76 226.5 107.594C226.646 107.406 226.927 107.26 227.344 107.156C229.99 106.49 232.469 105.562 234.781 104.375C237.115 103.167 239.167 101.75 240.938 100.125C240.729 99.4375 240.448 98.8125 240.094 98.25C239.26 98.9583 238.229 99.6667 237 100.375C235.792 101.062 234.625 101.615 233.5 102.031C232.062 102.594 230.812 103.01 229.75 103.281C228.688 103.552 227.938 103.688 227.5 103.688C226.833 103.688 226.5 103.333 226.5 102.625C226.5 102.292 226.625 102.042 226.875 101.875C227.146 101.688 227.667 101.5 228.438 101.312C230.604 100.75 232.573 100.052 234.344 99.2188C236.135 98.3646 237.667 97.4271 238.938 96.4062L237.562 95.0312C235.938 95.9688 234.021 96.8333 231.812 97.625C230.083 98.25 228.844 98.5625 228.094 98.5625C227.344 98.5625 226.969 98.1875 226.969 97.4375C226.969 97.1458 227.052 96.9271 227.219 96.7812C227.406 96.6146 227.677 96.4792 228.031 96.375C229.927 95.8958 231.667 95.3438 233.25 94.7188C234.833 94.0938 236.427 93.3125 238.031 92.375H231.125C230.271 92.375 229.844 92 229.844 91.25C229.844 90.5 230.271 90.125 231.125 90.125H248.812C249.688 90.125 250.125 90.5 250.125 91.25C250.125 92 249.688 92.375 248.812 92.375H241.562C240.958 92.8333 240.219 93.3542 239.344 93.9375C240.781 95.125 241.979 96.6667 242.938 98.5625C244.771 97.5625 246.771 96.1458 248.938 94.3125C249.292 94 249.646 93.8438 250 93.8438C250.333 93.8438 250.635 93.9792 250.906 94.25C251.115 94.4583 251.219 94.6979 251.219 94.9688C251.219 95.3646 251 95.75 250.562 96.125C248.875 97.5417 246.906 98.75 244.656 99.75C246.49 102.458 249.271 104.615 253 106.219C253.75 106.552 254.125 106.99 254.125 107.531C254.125 107.656 254.094 107.812 254.031 108C253.948 108.292 253.792 108.521 253.562 108.688C253.354 108.854 253.104 108.938 252.812 108.938C252.604 108.938 252.365 108.885 252.094 108.781C250.865 108.281 249.625 107.542 248.375 106.562C247.375 105.771 246.51 104.958 245.781 104.125C245.073 103.271 244.396 102.271 243.75 101.125C243.979 102.375 244.094 103.594 244.094 104.781C244.094 107.031 243.656 108.656 242.781 109.656C242.052 110.51 240.552 110.938 238.281 110.938C237.99 110.938 237.469 110.917 236.719 110.875ZM226.281 88.625C226.281 87.4792 226.542 86.6562 227.062 86.1562C227.667 85.5938 228.51 85.3333 229.594 85.375H238.344V83.875C238.344 82.9792 238.823 82.5312 239.781 82.5312C240.74 82.5312 241.219 82.9792 241.219 83.875V85.375H250.375C251.479 85.375 252.323 85.6354 252.906 86.1562C253.427 86.6146 253.688 87.4062 253.688 88.5312V90.75C253.688 91.8333 253.24 92.375 252.344 92.375C251.448 92.375 251 91.8333 251 90.75V88.875C251 88.0417 250.594 87.6354 249.781 87.6562H230.156C229.344 87.6562 228.948 88.0625 228.969 88.875V90.75C228.969 91.8333 228.521 92.375 227.625 92.375C226.729 92.375 226.281 91.8333 226.281 90.75V88.625ZM270.156 110.938C269.427 110.938 269.062 110.521 269.062 109.688V86.7188C268.896 84.6979 269.833 83.7708 271.875 83.9375H282.438C284.417 83.7708 285.354 84.6979 285.25 86.7188V108C285.25 109.896 284.354 110.844 282.562 110.844H280.562C279.625 110.844 279.156 110.448 279.156 109.656C279.156 108.885 279.604 108.5 280.5 108.5H281.906C282.573 108.5 282.927 108.146 282.969 107.438V87.25C282.969 86.8958 282.865 86.625 282.656 86.4375C282.469 86.2292 282.198 86.125 281.844 86.125H272.375C272.042 86.125 271.771 86.2188 271.562 86.4062C271.375 86.5938 271.281 86.8646 271.281 87.2188V109.688C271.281 110.521 270.906 110.938 270.156 110.938ZM257.656 107.125C257.656 106.833 257.75 106.458 257.938 106C258.458 104.604 258.75 102.833 258.812 100.688C258.833 99.8542 259.177 99.4375 259.844 99.4375C260.51 99.4375 260.844 99.875 260.844 100.75C260.844 101.812 260.594 103.583 260.094 106.062C259.823 107.458 259.365 108.156 258.719 108.156C258.01 108.156 257.656 107.812 257.656 107.125ZM257.688 96.9688C257.688 96.3854 258.01 96.0208 258.656 95.875L260.094 95.7812L262.062 92.7812L261.688 92.4062C260.688 91.4062 259.719 90.5625 258.781 89.875C258.198 89.4375 257.906 89.0312 257.906 88.6562C257.906 87.9271 258.24 87.5625 258.906 87.5625C259.177 87.5625 259.542 87.7292 260 88.0625C260.792 86.6875 261.427 85.3646 261.906 84.0938C262.302 83.0104 262.792 82.4688 263.375 82.4688C264.271 82.4688 264.719 82.8333 264.719 83.5625C264.719 83.9375 264.469 84.5938 263.969 85.5312C263.469 86.4479 262.677 87.7188 261.594 89.3438L263.25 90.8438L265.344 87.0938C265.49 86.8438 265.667 86.6458 265.875 86.5C266.083 86.3542 266.292 86.2812 266.5 86.2812C267.354 86.2812 267.781 86.6458 267.781 87.375C267.781 87.7708 266.458 89.9167 263.812 93.8125L262.594 95.5312L262.375 95.75L265.625 95.5625L265.344 94.7812C265.198 94.3854 265.125 94.125 265.125 94C265.125 93.4583 265.438 93.1875 266.062 93.1875C266.521 93.1875 266.854 93.4375 267.062 93.9375C267.958 95.9167 268.406 97.2292 268.406 97.875C268.406 98.5 268.062 98.8125 267.375 98.8125C266.958 98.8125 266.573 98.3229 266.219 97.3438L264.531 97.5625L264.438 97.5938V109.781C264.438 110.635 264.062 111.062 263.312 111.062C262.562 111.062 262.188 110.635 262.188 109.781V97.8125L258.812 98.1562C258.458 98.1979 258.177 98.1146 257.969 97.9062C257.781 97.6771 257.688 97.3646 257.688 96.9688ZM265.344 100.344C265.281 99.8021 265.583 99.5312 266.25 99.5312C266.583 99.5312 266.844 99.6458 267.031 99.875C267.094 99.9583 267.188 100.292 267.312 100.875C267.458 101.438 267.615 102.167 267.781 103.062L268.188 106.312C268.229 106.667 268.156 106.938 267.969 107.125C267.781 107.312 267.5 107.406 267.125 107.406C266.708 107.406 266.417 107.24 266.25 106.906L265.344 100.344ZM271.656 98.4375C271.656 97.7292 272.031 97.375 272.781 97.375H276.062V95.75C276.062 95.0417 276.427 94.6875 277.156 94.6875C277.865 94.6875 278.219 95.0417 278.219 95.75V97.375H281.25C282.042 97.375 282.438 97.7396 282.438 98.4688C282.438 99.1771 282.042 99.5312 281.25 99.5312H275.656V103.188C275.656 103.542 275.75 103.823 275.938 104.031C276.146 104.219 276.427 104.312 276.781 104.312L279.094 104.344L280.625 104.281C281.438 104.24 281.844 104.604 281.844 105.375C281.844 105.729 281.708 106.01 281.438 106.219C281.167 106.427 280.781 106.542 280.281 106.562L277.688 106.594C276 106.615 274.875 106.448 274.312 106.094C273.792 105.76 273.51 105.188 273.469 104.375V99.5312H272.781C272.031 99.5312 271.656 99.1667 271.656 98.4375ZM271.688 93.0938C271.688 92.3854 272.073 92.0312 272.844 92.0312H277.656L278.906 87.6562C279.094 87.0104 279.479 86.6875 280.062 86.6875C280.833 86.6875 281.219 87 281.219 87.625C281.219 88.1875 280.708 89.6562 279.688 92.0312H281.188C282.021 92.0312 282.438 92.3958 282.438 93.125C282.438 93.8333 282.021 94.1875 281.188 94.1875H272.781C272.052 94.1875 271.688 93.8229 271.688 93.0938ZM272.906 88.0312C272.906 87.3646 273.292 87.0312 274.062 87.0312C274.5 87.0312 274.938 87.5 275.375 88.4375C275.792 89.3333 276 90.0417 276 90.5625C276 91.2292 275.583 91.5625 274.75 91.5625C274.312 91.5625 273.969 91.2292 273.719 90.5625C273.177 89.1458 272.906 88.3021 272.906 88.0312Z" fill="#BAE5FF"/>
<path d="M172.644 5.82475C211.269 28.4309 249.635 50.8964 288 73.3619C287.908 73.8259 287.817 74.2898 287.725 74.7538C281.196 74.0437 274.357 76.6314 268.158 73.0449C238.454 55.8598 208.874 38.4538 179.25 21.1266C175.2 18.7578 171.134 16.4166 167.102 14.0176C161.013 10.3949 160.603 10.4195 154.231 15.7661C187.185 35.0775 219.897 54.247 252.609 73.4165C252.502 73.856 252.395 74.2955 252.288 74.735C244.921 73.9642 237.538 76.2453 230.19 71.8344C206.166 57.4122 181.895 43.4133 157.712 29.2624C148.688 23.9821 139.561 18.8763 130.661 13.3916C127.374 11.3657 124.834 11.3937 121.516 13.3486C88.4849 32.8138 55.2532 51.9337 22.358 71.6307C14.8797 76.1086 7.51152 73.8525 0.000910378 74.8145C-0.0393796 72.6015 1.26677 72.4651 2.10538 71.973C41.9948 48.5646 81.9136 25.2073 121.768 1.73715C124.745 -0.0161452 127.117 -0.519938 130.128 1.62275C133.395 3.94747 137.089 5.64668 140.482 7.80377C142.797 9.27547 144.757 9.29424 147.115 7.77051C150.827 5.37184 154.83 3.43739 158.569 1.07623C160.635 -0.228568 162.322 -0.449054 164.422 0.983421C166.965 2.71817 169.721 4.13164 172.644 5.82475Z" fill="#BAE5FF"/>
<rect x="111" y="36" width="10" height="11" rx="0.5" fill="#24948E"/>
<rect x="111" y="52" width="10" height="10" rx="0.5" fill="#24948E"/>
<rect x="129" y="52" width="10" height="10" rx="0.5" fill="#24948E"/>
<rect x="129" y="36" width="10" height="11" rx="0.5" fill="#24948E"/>
</svg>
