<svg width="288" height="112" viewBox="0 0 288 112" fill="none" xmlns="http://www.w3.org/2000/svg">
<path d="M270.156 111.874C269.427 111.874 269.062 111.454 269.062 110.614V87.4509C268.896 85.413 269.833 84.4781 271.875 84.6462H282.438C284.417 84.4781 285.354 85.413 285.25 87.4509V108.912C285.25 110.824 284.354 111.78 282.562 111.78H280.562C279.625 111.78 279.156 111.38 279.156 110.582C279.156 109.805 279.604 109.416 280.5 109.416H281.906C282.573 109.416 282.927 109.059 282.969 108.345V87.9866C282.969 87.6295 282.865 87.3564 282.656 87.1673C282.469 86.9572 282.198 86.8522 281.844 86.8522H272.375C272.042 86.8522 271.771 86.9467 271.562 87.1358C271.375 87.3249 271.281 87.598 271.281 87.9551V110.614C271.281 111.454 270.906 111.874 270.156 111.874ZM257.656 108.029C257.656 107.735 257.75 107.357 257.938 106.895C258.458 105.487 258.75 103.702 258.812 101.538C258.833 100.697 259.177 100.277 259.844 100.277C260.51 100.277 260.844 100.718 260.844 101.601C260.844 102.672 260.594 104.458 260.094 106.958C259.823 108.366 259.365 109.069 258.719 109.069C258.01 109.069 257.656 108.723 257.656 108.029ZM257.688 97.7874C257.688 97.1992 258.01 96.8315 258.656 96.6845L260.094 96.5899L262.062 93.5646L261.688 93.1864C260.688 92.178 259.719 91.3271 258.781 90.6338C258.198 90.1926 257.906 89.7829 257.906 89.4048C257.906 88.6694 258.24 88.3018 258.906 88.3018C259.177 88.3018 259.542 88.4699 260 88.806C260.792 87.4194 261.427 86.0853 261.906 84.8038C262.302 83.7113 262.792 83.165 263.375 83.165C264.271 83.165 264.719 83.5327 264.719 84.268C264.719 84.6462 264.469 85.308 263.969 86.2534C263.469 87.1778 262.677 88.4594 261.594 90.0981L263.25 91.6107L265.344 87.8291C265.49 87.577 265.667 87.3774 265.875 87.2303C266.083 87.0833 266.292 87.0097 266.5 87.0097C267.354 87.0097 267.781 87.3774 267.781 88.1127C267.781 88.5119 266.458 90.6758 263.812 94.6045L262.594 96.3378L262.375 96.5584L265.625 96.3693L265.344 95.5815C265.198 95.1823 265.125 94.9197 265.125 94.7936C265.125 94.2474 265.438 93.9743 266.062 93.9743C266.521 93.9743 266.854 94.2264 267.062 94.7306C267.958 96.7265 268.406 98.0501 268.406 98.7013C268.406 99.3316 268.062 99.6467 267.375 99.6467C266.958 99.6467 266.573 99.153 266.219 98.1656L264.531 98.3862L264.438 98.4177V110.708C264.438 111.569 264.062 112 263.312 112C262.562 112 262.188 111.569 262.188 110.708V98.6383L258.812 98.985C258.458 99.027 258.177 98.9429 257.969 98.7329C257.781 98.5017 257.688 98.1866 257.688 97.7874ZM265.344 101.191C265.281 100.645 265.583 100.372 266.25 100.372C266.583 100.372 266.844 100.487 267.031 100.718C267.094 100.802 267.188 101.138 267.312 101.727C267.458 102.294 267.615 103.029 267.781 103.933L268.188 107.21C268.229 107.567 268.156 107.84 267.969 108.029C267.781 108.219 267.5 108.313 267.125 108.313C266.708 108.313 266.417 108.145 266.25 107.809L265.344 101.191ZM271.656 99.2686C271.656 98.5543 272.031 98.1971 272.781 98.1971H276.062V96.5584C276.062 95.8441 276.427 95.4869 277.156 95.4869C277.865 95.4869 278.219 95.8441 278.219 96.5584V98.1971H281.25C282.042 98.1971 282.438 98.5648 282.438 99.3001C282.438 100.014 282.042 100.372 281.25 100.372H275.656V104.059C275.656 104.416 275.75 104.699 275.938 104.91C276.146 105.099 276.427 105.193 276.781 105.193L279.094 105.225L280.625 105.162C281.438 105.12 281.844 105.487 281.844 106.265C281.844 106.622 281.708 106.905 281.438 107.116C281.167 107.326 280.781 107.441 280.281 107.462L277.688 107.494C276 107.515 274.875 107.347 274.312 106.989C273.792 106.653 273.51 106.076 273.469 105.256V100.372H272.781C272.031 100.372 271.656 100.004 271.656 99.2686ZM271.688 93.8797C271.688 93.1654 272.073 92.8083 272.844 92.8083H277.656L278.906 88.3963C279.094 87.745 279.479 87.4194 280.062 87.4194C280.833 87.4194 281.219 87.7345 281.219 88.3648C281.219 88.9321 280.708 90.4132 279.688 92.8083H281.188C282.021 92.8083 282.438 93.1759 282.438 93.9112C282.438 94.6256 282.021 94.9827 281.188 94.9827H272.781C272.052 94.9827 271.688 94.615 271.688 93.8797ZM272.906 88.7745C272.906 88.1022 273.292 87.7661 274.062 87.7661C274.5 87.7661 274.938 88.2388 275.375 89.1842C275.792 90.0876 276 90.8019 276 91.3271C276 91.9994 275.583 92.3356 274.75 92.3356C274.312 92.3356 273.969 91.9994 273.719 91.3271C273.177 89.8985 272.906 89.0476 272.906 88.7745Z" fill="#BAE5FF"/>
<path d="M236.719 111.811C235.844 111.748 235.406 111.348 235.406 110.613C235.406 110.109 235.531 109.752 235.781 109.542C236.052 109.331 236.469 109.247 237.031 109.289C237.281 109.31 237.615 109.321 238.031 109.321C239.615 109.321 240.604 109.027 241 108.439C241.375 107.829 241.562 106.81 241.562 105.382C241.562 104.688 241.521 104.006 241.438 103.333C239.146 105.518 236.49 107.22 233.469 108.439C232.031 109.027 230.771 109.479 229.688 109.794C228.604 110.109 227.833 110.266 227.375 110.266C226.646 110.266 226.281 109.93 226.281 109.258C226.281 108.922 226.354 108.67 226.5 108.502C226.646 108.313 226.927 108.165 227.344 108.06C229.99 107.388 232.469 106.453 234.781 105.256C237.115 104.037 239.167 102.609 240.938 100.97C240.729 100.276 240.448 99.6462 240.094 99.079C239.26 99.7933 238.229 100.508 237 101.222C235.792 101.915 234.625 102.472 233.5 102.892C232.062 103.459 230.812 103.88 229.75 104.153C228.688 104.426 227.938 104.562 227.5 104.562C226.833 104.562 226.5 104.205 226.5 103.491C226.5 103.155 226.625 102.903 226.875 102.735C227.146 102.545 227.667 102.356 228.438 102.167C230.604 101.6 232.573 100.896 234.344 100.056C236.135 99.1945 237.667 98.2491 238.938 97.2197L237.562 95.8331C235.938 96.7785 234.021 97.6503 231.812 98.4487C230.083 99.079 228.844 99.3941 228.094 99.3941C227.344 99.3941 226.969 99.0159 226.969 98.2596C226.969 97.9655 227.052 97.7449 227.219 97.5978C227.406 97.4298 227.677 97.2932 228.031 97.1881C229.927 96.7049 231.667 96.1482 233.25 95.5179C234.833 94.8876 236.427 94.0998 238.031 93.1544H231.125C230.271 93.1544 229.844 92.7762 229.844 92.0199C229.844 91.2636 230.271 90.8854 231.125 90.8854H248.812C249.688 90.8854 250.125 91.2636 250.125 92.0199C250.125 92.7762 249.688 93.1544 248.812 93.1544H241.562C240.958 93.6166 240.219 94.1418 239.344 94.7301C240.781 95.9276 241.979 97.4823 242.938 99.3941C244.771 98.3857 246.771 96.957 248.938 95.1082C249.292 94.7931 249.646 94.6355 250 94.6355C250.333 94.6355 250.635 94.7721 250.906 95.0452C251.115 95.2553 251.219 95.4969 251.219 95.77C251.219 96.1692 251 96.5579 250.562 96.936C248.875 98.3647 246.906 99.5832 244.656 100.592C246.49 103.323 249.271 105.497 253 107.115C253.75 107.451 254.125 107.892 254.125 108.439C254.125 108.565 254.094 108.722 254.031 108.911C253.948 109.205 253.792 109.437 253.562 109.605C253.354 109.773 253.104 109.857 252.812 109.857C252.604 109.857 252.365 109.804 252.094 109.699C250.865 109.195 249.625 108.449 248.375 107.462C247.375 106.663 246.51 105.844 245.781 105.004C245.073 104.142 244.396 103.134 243.75 101.978C243.979 103.239 244.094 104.468 244.094 105.665C244.094 107.934 243.656 109.573 242.781 110.582C242.052 111.443 240.552 111.874 238.281 111.874C237.99 111.874 237.469 111.853 236.719 111.811ZM226.281 89.3727C226.281 88.2172 226.542 87.3874 227.062 86.8831C227.667 86.3159 228.51 86.0533 229.594 86.0953H238.344V84.5826C238.344 83.6792 238.823 83.2275 239.781 83.2275C240.74 83.2275 241.219 83.6792 241.219 84.5826V86.0953H250.375C251.479 86.0953 252.323 86.3579 252.906 86.8831C253.427 87.3453 253.688 88.1437 253.688 89.2782V91.5157C253.688 92.6081 253.24 93.1544 252.344 93.1544C251.448 93.1544 251 92.6081 251 91.5157V89.6248C251 88.7845 250.594 88.3748 249.781 88.3958H230.156C229.344 88.3958 228.948 88.8055 228.969 89.6248V91.5157C228.969 92.6081 228.521 93.1544 227.625 93.1544C226.729 93.1544 226.281 92.6081 226.281 91.5157V89.3727Z" fill="#BAE5FF"/>
<path d="M202.938 110.645C202.688 110.645 202.396 110.508 202.062 110.235C201.729 109.983 201.385 109.594 201.031 109.069L200.469 108.407C200.156 108.029 200 107.725 200 107.493C200 106.737 200.406 106.359 201.219 106.359C201.719 106.359 202.354 106.779 203.125 107.62C203.896 108.46 204.281 109.059 204.281 109.416C204.281 110.235 203.833 110.645 202.938 110.645ZM193.906 104.941C193.906 104.206 194.333 103.838 195.188 103.838H213V101.695C207.146 102.031 201.354 102.304 195.625 102.514C195.167 102.535 194.812 102.451 194.562 102.262C194.333 102.073 194.219 101.8 194.219 101.443C194.219 100.708 194.625 100.329 195.438 100.308C196.708 100.266 198.698 100.224 201.406 100.182C202.51 100.14 204.188 100.098 206.438 100.056V98.386H198.938C197.979 98.386 197.281 98.1759 196.844 97.7557C196.427 97.3356 196.25 96.6633 196.312 95.7389V91.5475C196.312 90.6021 196.521 89.9193 196.938 89.4991C197.354 89.0579 198.021 88.8688 198.938 88.9319H206.438V87.5453H195.156C194.74 87.5453 194.427 87.4612 194.219 87.2932C194.031 87.1251 193.938 86.852 193.938 86.4738C193.938 85.7595 194.344 85.4023 195.156 85.4023H206.438V84.2678C206.438 83.4695 206.854 83.0703 207.688 83.0703C208.521 83.0703 208.938 83.4695 208.938 84.2678V85.4023H220.5C221.312 85.4023 221.719 85.7595 221.719 86.4738C221.719 87.1881 221.312 87.5453 220.5 87.5453H208.938V88.9319H216.688C217.625 88.9319 218.302 89.142 218.719 89.5622C219.135 89.9613 219.323 90.6231 219.281 91.5475V95.7389C219.281 96.6843 219.073 97.3776 218.656 97.8188C218.26 98.2389 217.604 98.428 216.688 98.386H216.656C217.26 98.6801 217.927 99.0478 218.656 99.489C219.406 99.9092 220.052 100.287 220.594 100.623C221.135 100.96 221.406 101.338 221.406 101.758C221.406 102.136 221.302 102.43 221.094 102.64C220.885 102.85 220.615 102.956 220.281 102.956C220.115 102.956 219.885 102.871 219.594 102.703C219.302 102.514 218.667 102.094 217.688 101.443C217.188 101.485 216.458 101.527 215.5 101.569V103.838H220.938C221.75 103.838 222.156 104.206 222.156 104.941C222.156 105.676 221.75 106.044 220.938 106.044H215.5V109.542C215.5 110.298 215.292 110.876 214.875 111.275C214.479 111.695 213.906 111.905 213.156 111.905H209.531C208.615 111.905 208.156 111.517 208.156 110.739C208.156 110.319 208.26 110.004 208.469 109.794C208.698 109.605 209.052 109.51 209.531 109.51H212.219C212.74 109.51 213 109.248 213 108.723V106.044H195.188C194.333 106.044 193.906 105.676 193.906 104.941ZM198.812 95.5813C198.812 96.1065 199.073 96.3691 199.594 96.3691H206.438V94.6044H198.812V95.5813ZM206.438 92.6505V90.9488H199.594C199.073 90.9488 198.812 91.2114 198.812 91.7366V92.6505H206.438ZM215.25 99.8672C214.833 99.552 214.625 99.2369 214.625 98.9217C214.625 98.8797 214.646 98.7747 214.688 98.6066C214.729 98.5016 214.771 98.428 214.812 98.386H208.938V99.9932L215.25 99.8672ZM216 96.3691C216.521 96.3691 216.781 96.1065 216.781 95.5813V94.6044H208.938V96.3691H216ZM216.781 92.6505V91.7366C216.781 91.2114 216.521 90.9488 216 90.9488H208.938V92.6505H216.781Z" fill="#BAE5FF"/>
<path d="M174.75 110.928C173.729 110.928 172.99 110.697 172.531 110.235C172.073 109.773 171.875 109.037 171.938 108.029V100.907C171.938 99.8563 172.156 99.1 172.594 98.6378C173.052 98.1546 173.771 97.9445 174.75 98.0075H178.594V92.0514H171.625C170.646 92.0514 170.156 91.6312 170.156 90.7908C170.156 89.9505 170.646 89.5303 171.625 89.5303H178.594V84.6457C178.594 83.7002 179.052 83.2275 179.969 83.2275C180.844 83.2275 181.281 83.7002 181.281 84.6457V89.5303H188.469C189.49 89.5303 190 89.9505 190 90.7908C190 91.6312 189.49 92.0514 188.469 92.0514H181.281V98.0075H185.438C186.479 98.0075 187.24 98.2386 187.719 98.7008C188.198 99.163 188.406 99.9088 188.344 100.938V107.997C188.344 109.048 188.115 109.815 187.656 110.298C187.198 110.781 186.458 110.991 185.438 110.928H174.75ZM161.719 98.4802C161.719 98.102 161.927 97.5873 162.344 96.936C164.969 92.9863 166.906 89.0681 168.156 85.1814C168.594 83.8788 169.177 83.2275 169.906 83.2275C170.823 83.2275 171.281 83.6267 171.281 84.4251C171.281 84.6352 171.188 84.9818 171 85.465C170.396 87.0617 169.594 88.9105 168.594 91.0114V110.424C168.594 111.474 168.167 112 167.312 112C166.458 112 166.031 111.474 166.031 110.424V95.77C165.281 97.1146 164.635 98.1336 164.094 98.8269C163.552 99.4992 163.135 99.8353 162.844 99.8353C162.094 99.8353 161.719 99.3836 161.719 98.4802ZM174.594 107.304C174.594 108.018 174.969 108.397 175.719 108.439H184.531C185.26 108.439 185.646 108.05 185.688 107.273V101.663C185.688 100.949 185.302 100.571 184.531 100.529H175.719C174.99 100.529 174.615 100.928 174.594 101.726V107.304Z" fill="#BAE5FF"/>
<path d="M133.469 110.708C131.781 110.708 130.938 109.889 130.938 108.25V103.838C130.938 102.178 131.781 101.349 133.469 101.349H137.156C138.865 101.349 139.719 102.178 139.719 103.838V108.187C139.719 109.868 138.865 110.708 137.156 110.708H133.469ZM129.688 89.9721C129.688 89.1948 130.135 88.8061 131.031 88.8061H139.438C140.354 88.8061 140.812 89.1948 140.812 89.9721C140.812 90.7495 140.354 91.1381 139.438 91.1381H131.031C130.135 91.1381 129.688 90.7495 129.688 89.9721ZM130.812 85.7178C130.812 84.9404 131.271 84.5518 132.188 84.5518H138.375C139.312 84.5518 139.781 84.9404 139.781 85.7178C139.781 86.4951 139.312 86.8838 138.375 86.8838H132.188C131.271 86.8838 130.812 86.4951 130.812 85.7178ZM130.906 98.2918C130.906 97.5354 131.344 97.1573 132.219 97.1573H138.281C139.198 97.1573 139.656 97.5354 139.656 98.2918C139.656 98.6489 139.531 98.9325 139.281 99.1426C139.052 99.3317 138.719 99.4263 138.281 99.4263H132.219C131.344 99.4263 130.906 99.0481 130.906 98.2918ZM130.906 94.1635C130.906 93.4071 131.344 93.029 132.219 93.029H138.281C138.719 93.029 139.052 93.134 139.281 93.3441C139.531 93.5332 139.656 93.8063 139.656 94.1635C139.656 94.5206 139.531 94.8042 139.281 95.0143C139.052 95.2034 138.719 95.298 138.281 95.298H132.219C131.344 95.298 130.906 94.9198 130.906 94.1635ZM133.281 107.714C133.281 107.988 133.354 108.198 133.5 108.345C133.646 108.492 133.844 108.565 134.094 108.565H136.5C137.062 108.565 137.344 108.282 137.344 107.714V104.311C137.344 103.765 137.062 103.492 136.5 103.492H134.094C133.844 103.492 133.646 103.565 133.5 103.712C133.354 103.838 133.281 104.038 133.281 104.311V107.714ZM140.312 100.372C140.312 99.5733 140.781 99.1742 141.719 99.1742H147.969V87.1044H142.438C141.5 87.1044 141.031 86.7052 141.031 85.9069C141.031 85.1085 141.5 84.7093 142.438 84.7093H156.125C157.083 84.7093 157.562 85.1085 157.562 85.9069C157.562 86.7052 157.083 87.1044 156.125 87.1044H150.5V99.1742H156.719C157.677 99.1742 158.156 99.5733 158.156 100.372C158.156 101.17 157.677 101.569 156.719 101.569H150.5V110.488C150.5 110.992 150.396 111.359 150.188 111.591C149.979 111.822 149.656 111.937 149.219 111.937C148.385 111.937 147.969 111.454 147.969 110.488V101.569H141.719C141.24 101.569 140.885 101.464 140.656 101.254C140.427 101.044 140.312 100.75 140.312 100.372ZM141.375 95.8652C141.312 95.6131 141.438 95.2349 141.75 94.7307C142.75 93.113 143.542 91.4953 144.125 89.8776C144.229 89.5624 144.385 89.3313 144.594 89.1843C144.802 89.0372 145.083 88.9637 145.438 88.9637C146.042 88.9637 146.385 89.2788 146.469 89.9091C146.531 90.4974 146.062 91.8209 145.062 93.8798C144.062 95.8547 143.292 96.8736 142.75 96.9367C142.667 96.9577 142.562 96.9682 142.438 96.9682C141.812 96.9682 141.458 96.6005 141.375 95.8652ZM151.938 90.0982C152.021 89.4469 152.375 89.1213 153 89.1213C153.542 89.1213 153.99 89.4994 154.344 90.2558C154.51 90.6549 154.719 91.0646 154.969 91.4848C155.24 91.905 155.427 92.1991 155.531 92.3672C156.031 93.1445 156.49 93.8168 156.906 94.3841C157.281 94.9093 157.438 95.34 157.375 95.6761C157.312 96.4745 156.865 96.8316 156.031 96.7476C155.51 96.6846 154.677 95.6761 153.531 93.7223C152.406 91.7894 151.875 90.5814 151.938 90.0982Z" fill="#BAE5FF"/>
<path d="M100.594 110.834C99.5729 110.834 99.0625 110.424 99.0625 109.605C99.0625 108.785 99.5729 108.376 100.594 108.376H110.625V103.397H103.844C102.823 103.397 102.312 102.987 102.312 102.168C102.312 101.348 102.823 100.938 103.844 100.938H110.625V96.6211H103.938C102.979 96.6211 102.5 96.2429 102.5 95.4866C102.5 94.6882 102.979 94.2891 103.938 94.2891H120.156C121.115 94.2891 121.594 94.6882 121.594 95.4866C121.594 95.8858 121.479 96.1799 121.25 96.369C121.021 96.537 120.656 96.6211 120.156 96.6211H113.156V100.938H120.188C121.188 100.938 121.688 101.348 121.688 102.168C121.688 102.987 121.188 103.397 120.188 103.397H113.156V108.376H123.406C124.427 108.376 124.938 108.796 124.938 109.636C124.938 110.435 124.427 110.834 123.406 110.834H100.594ZM97.8438 94.7303C97.8438 94.163 98.1771 93.7428 98.8438 93.4697C103.281 91.747 107.021 89.1838 110.062 85.7803H104.188C103.188 85.7803 102.688 85.3707 102.688 84.5513C102.688 83.7319 103.188 83.3223 104.188 83.3223H110.844C111.448 83.3223 111.948 83.4063 112.344 83.5744C112.76 83.7424 113.135 84.0366 113.469 84.4568C114.948 86.3686 116.583 87.9758 118.375 89.2784C120.188 90.5809 122.385 91.6734 124.969 92.5558C125.76 92.8079 126.156 93.2491 126.156 93.8794C126.156 93.9634 126.135 94.1105 126.094 94.3206C125.927 95.0349 125.521 95.392 124.875 95.392C124.708 95.392 124.51 95.3605 124.281 95.2975C121.781 94.4781 119.521 93.3226 117.5 91.831C115.479 90.3183 113.781 88.6061 112.406 86.6942C110.906 88.5851 109.052 90.3498 106.844 91.9886C104.635 93.6063 102.302 94.8983 99.8438 95.8648C99.5312 95.9698 99.2708 96.0223 99.0625 96.0223C98.7083 96.0223 98.4167 95.9173 98.1875 95.7072C97.9583 95.4761 97.8438 95.1504 97.8438 94.7303Z" fill="#BAE5FF"/>
<path d="M91.1875 111.906C90.8542 111.906 90.1667 111.601 89.125 110.992C87.625 110.11 85.4479 109.007 82.5938 107.683C79.1562 110.33 74.5729 111.654 68.8438 111.654C68.2188 111.654 67.75 111.538 67.4375 111.307C67.1458 111.076 67 110.719 67 110.236C67 109.752 67.1771 109.416 67.5312 109.227C67.8021 109.101 68.7292 109.017 70.3125 108.975C72.3125 108.933 74.1146 108.702 75.7188 108.282C77.3438 107.841 78.7292 107.263 79.875 106.548C78.3125 105.876 76.0417 105.099 73.0625 104.216C72.4792 104.048 72.0417 103.828 71.75 103.555C71.4583 103.282 71.3125 102.935 71.3125 102.515C71.3125 102.137 71.4375 101.685 71.6875 101.16L73.4688 97.5985H67.7188C66.7396 97.5985 66.25 97.2099 66.25 96.4325C66.25 95.6342 66.7396 95.235 67.7188 95.235H74.625L76.5 90.76C76.7708 90.0878 77.1771 89.7516 77.7188 89.7516C78.1771 89.7516 78.5312 89.8672 78.7812 90.0983C79.0312 90.3083 79.1562 90.6235 79.1562 91.0437C79.1562 91.3378 78.6042 92.7349 77.5 95.235H92.375C93.3542 95.235 93.8438 95.6342 93.8438 96.4325C93.8438 97.2099 93.3542 97.5985 92.375 97.5985H88.3438C87.6562 100.876 86.4271 103.565 84.6562 105.666C86.5104 106.38 88.8438 107.473 91.6562 108.944C92.3646 109.322 92.7188 109.805 92.7188 110.393C92.7188 110.834 92.5833 111.191 92.3125 111.465C92.0417 111.759 91.6667 111.906 91.1875 111.906ZM66.4375 89.6571C66.3542 88.5226 66.5625 87.7032 67.0625 87.199C67.5625 86.6948 68.375 86.4847 69.5 86.5687H78.4688V84.6149C78.4688 83.7115 78.9271 83.2598 79.8438 83.2598C80.7396 83.2598 81.1875 83.7115 81.1875 84.6149V86.5687H90.5625C91.6875 86.4847 92.5 86.6948 93 87.199C93.5 87.7032 93.7083 88.5226 93.625 89.6571V92.4303C93.625 92.9345 93.5208 93.3022 93.3125 93.5333C93.1042 93.7644 92.7917 93.8799 92.375 93.8799C91.9583 93.8799 91.6458 93.7644 91.4375 93.5333C91.2292 93.3022 91.125 92.9345 91.125 92.4303V90.1928C91.125 89.7516 91.0104 89.4155 90.7812 89.1844C90.5521 88.9533 90.2292 88.8482 89.8125 88.8692H70.25C69.3542 88.8692 68.9271 89.3104 68.9688 90.1928V92.4303C68.9688 93.3967 68.5521 93.8799 67.7188 93.8799C66.8646 93.8799 66.4375 93.3967 66.4375 92.4303V89.6571ZM74.5625 101.16C74.4792 101.328 74.4375 101.496 74.4375 101.664C74.4375 102.021 74.6562 102.263 75.0938 102.389C76.4896 102.767 78.5938 103.45 81.4062 104.437C81.6354 104.5 81.8958 104.584 82.1875 104.689C83.8958 103.029 85.0625 100.666 85.6875 97.5985H76.375L74.5625 101.16Z" fill="#BAE5FF"/>
<path d="M44.7188 111.811C43.8438 111.748 43.4062 111.348 43.4062 110.613C43.4062 110.109 43.5312 109.752 43.7812 109.542C44.0521 109.331 44.4688 109.247 45.0312 109.289C45.2812 109.31 45.6146 109.321 46.0312 109.321C47.6146 109.321 48.6042 109.027 49 108.439C49.375 107.829 49.5625 106.81 49.5625 105.382C49.5625 104.688 49.5208 104.006 49.4375 103.333C47.1458 105.518 44.4896 107.22 41.4688 108.439C40.0312 109.027 38.7708 109.479 37.6875 109.794C36.6042 110.109 35.8333 110.266 35.375 110.266C34.6458 110.266 34.2812 109.93 34.2812 109.258C34.2812 108.922 34.3542 108.67 34.5 108.502C34.6458 108.313 34.9271 108.165 35.3438 108.06C37.9896 107.388 40.4688 106.453 42.7812 105.256C45.1146 104.037 47.1667 102.609 48.9375 100.97C48.7292 100.276 48.4479 99.6462 48.0938 99.079C47.2604 99.7933 46.2292 100.508 45 101.222C43.7917 101.915 42.625 102.472 41.5 102.892C40.0625 103.459 38.8125 103.88 37.75 104.153C36.6875 104.426 35.9375 104.562 35.5 104.562C34.8333 104.562 34.5 104.205 34.5 103.491C34.5 103.155 34.625 102.903 34.875 102.735C35.1458 102.545 35.6667 102.356 36.4375 102.167C38.6042 101.6 40.5729 100.896 42.3438 100.056C44.1354 99.1945 45.6667 98.2491 46.9375 97.2197L45.5625 95.8331C43.9375 96.7785 42.0208 97.6503 39.8125 98.4487C38.0833 99.079 36.8438 99.3941 36.0938 99.3941C35.3438 99.3941 34.9688 99.0159 34.9688 98.2596C34.9688 97.9655 35.0521 97.7449 35.2188 97.5978C35.4062 97.4298 35.6771 97.2932 36.0312 97.1881C37.9271 96.7049 39.6667 96.1482 41.25 95.5179C42.8333 94.8876 44.4271 94.0998 46.0312 93.1544H39.125C38.2708 93.1544 37.8438 92.7762 37.8438 92.0199C37.8438 91.2636 38.2708 90.8854 39.125 90.8854H56.8125C57.6875 90.8854 58.125 91.2636 58.125 92.0199C58.125 92.7762 57.6875 93.1544 56.8125 93.1544H49.5625C48.9583 93.6166 48.2188 94.1418 47.3438 94.7301C48.7812 95.9276 49.9792 97.4823 50.9375 99.3941C52.7708 98.3857 54.7708 96.957 56.9375 95.1082C57.2917 94.7931 57.6458 94.6355 58 94.6355C58.3333 94.6355 58.6354 94.7721 58.9062 95.0452C59.1146 95.2553 59.2188 95.4969 59.2188 95.77C59.2188 96.1692 59 96.5579 58.5625 96.936C56.875 98.3647 54.9062 99.5832 52.6562 100.592C54.4896 103.323 57.2708 105.497 61 107.115C61.75 107.451 62.125 107.892 62.125 108.439C62.125 108.565 62.0938 108.722 62.0312 108.911C61.9479 109.205 61.7917 109.437 61.5625 109.605C61.3542 109.773 61.1042 109.857 60.8125 109.857C60.6042 109.857 60.3646 109.804 60.0938 109.699C58.8646 109.195 57.625 108.449 56.375 107.462C55.375 106.663 54.5104 105.844 53.7812 105.004C53.0729 104.142 52.3958 103.134 51.75 101.978C51.9792 103.239 52.0938 104.468 52.0938 105.665C52.0938 107.934 51.6562 109.573 50.7812 110.582C50.0521 111.443 48.5521 111.874 46.2812 111.874C45.9896 111.874 45.4688 111.853 44.7188 111.811ZM34.2812 89.3727C34.2812 88.2172 34.5417 87.3874 35.0625 86.8831C35.6667 86.3159 36.5104 86.0533 37.5938 86.0953H46.3438V84.5826C46.3438 83.6792 46.8229 83.2275 47.7812 83.2275C48.7396 83.2275 49.2188 83.6792 49.2188 84.5826V86.0953H58.375C59.4792 86.0953 60.3229 86.3579 60.9062 86.8831C61.4271 87.3453 61.6875 88.1437 61.6875 89.2782V91.5157C61.6875 92.6081 61.2396 93.1544 60.3438 93.1544C59.4479 93.1544 59 92.6081 59 91.5157V89.6248C59 88.7845 58.5938 88.3748 57.7812 88.3958H38.1562C37.3438 88.3958 36.9479 88.8055 36.9688 89.6248V91.5157C36.9688 92.6081 36.5208 93.1544 35.625 93.1544C34.7292 93.1544 34.2812 92.6081 34.2812 91.5157V89.3727Z" fill="#BAE5FF"/>
<path d="M3.09375 111.086C2.15625 111.086 1.6875 110.614 1.6875 109.668C1.6875 109.353 1.94792 108.628 2.46875 107.494C2.96875 106.401 3.36458 104.836 3.65625 102.798C3.90625 101.054 4.03125 98.1237 4.03125 94.0059V87.6716C4.03125 86.6212 4.30208 85.8438 4.84375 85.3396C5.40625 84.8144 6.26042 84.5518 7.40625 84.5518H25.4062C26.4688 84.5518 27.2396 84.7724 27.7188 85.2135C28.1979 85.6547 28.4167 86.3585 28.375 87.325V90.0036C28.375 90.9911 28.1354 91.7159 27.6562 92.1781C27.1979 92.6193 26.4479 92.8189 25.4062 92.7769H19.4688V96.0228H28.4688C29.4062 96.0228 29.875 96.422 29.875 97.2203C29.875 97.9976 29.4062 98.3863 28.4688 98.3863H19.4688V101.632H24.5938C25.8229 101.632 26.7083 101.874 27.25 102.357C27.8125 102.84 28.0521 103.607 27.9688 104.658V107.967C28.1562 110.151 27.0312 111.16 24.5938 110.992H12.0938C9.65625 111.16 8.53125 110.151 8.71875 107.967V104.658C8.53125 102.515 9.65625 101.506 12.0938 101.632H16.875V98.3863H8.875C7.91667 98.3863 7.4375 97.9871 7.4375 97.1888C7.4375 96.4114 7.91667 96.0228 8.875 96.0228H16.875V92.7769H6.65625V98.3233C6.65625 101.979 6.22917 105.12 5.375 107.746C4.66667 109.973 3.90625 111.086 3.09375 111.086ZM24.8125 90.5079C25.4583 90.5079 25.7917 90.1612 25.8125 89.4679V87.9237C25.8125 87.2724 25.4792 86.9258 24.8125 86.8838H8.0625C7.14583 86.8838 6.6875 87.2619 6.6875 88.0183V90.5079H24.8125ZM11.3125 107.462C11.3125 108.303 11.7188 108.712 12.5312 108.691H24.0625C24.9167 108.691 25.3229 108.282 25.2812 107.462V105.162C25.2812 104.321 24.875 103.912 24.0625 103.933H12.5312C11.6979 103.933 11.2917 104.342 11.3125 105.162V107.462Z" fill="#BAE5FF"/>
<path d="M172.644 5.87392C211.269 28.6709 249.635 51.326 288 73.9812C287.908 74.449 287.817 74.9169 287.725 75.3848C281.196 74.6687 274.357 77.2782 268.158 73.6615C238.454 56.3313 208.874 38.7784 179.25 21.3049C175.2 18.9162 171.134 16.5552 167.102 14.1359C161.013 10.4826 160.603 10.5074 154.231 15.8992C187.185 35.3736 219.897 54.7049 252.609 74.0362C252.502 74.4794 252.395 74.9226 252.288 75.3658C244.921 74.5885 237.538 76.8889 230.19 72.4407C206.166 57.8969 181.895 43.7798 157.712 29.5094C148.688 24.1845 139.561 19.0356 130.661 13.5047C127.374 11.4617 124.834 11.4898 121.516 13.4613C88.4849 33.0908 55.2532 52.3721 22.358 72.2354C14.8797 76.751 7.51152 74.4759 0.000910378 75.446C-0.0393796 73.2143 1.26677 73.0768 2.10538 72.5805C41.9948 48.9745 81.9136 25.4201 121.768 1.75182C124.745 -0.0162815 127.117 -0.524327 130.128 1.63645C133.395 3.98079 137.089 5.69434 140.482 7.86964C142.797 9.35376 144.757 9.37269 147.115 7.8361C150.827 5.41719 154.83 3.46641 158.569 1.08532C160.635 -0.230497 162.322 -0.452845 164.422 0.991722C166.965 2.74111 169.721 4.16652 172.644 5.87392Z" fill="#BAE5FF"/>
<rect x="111" y="36.3037" width="10" height="11.0929" rx="0.5" fill="#24948E"/>
<rect x="111" y="52.4385" width="10" height="10.0844" rx="0.5" fill="#24948E"/>
<rect x="129" y="52.4385" width="10" height="10.0844" rx="0.5" fill="#24948E"/>
<rect x="129" y="36.3037" width="10" height="11.0929" rx="0.5" fill="#24948E"/>
</svg>
