<svg width="320" height="324" viewBox="0 0 320 324" fill="none" xmlns="http://www.w3.org/2000/svg">
<g clip-path="url(#clip0_42_1611)">
<path d="M113.14 313.226C120.108 306.973 126.05 299.657 130.745 291.548C132.655 288.598 135.379 286.267 138.584 284.839C141.789 283.41 145.339 282.945 148.803 283.5C156.311 284.408 177.541 287.848 179.548 293.365C183.612 301.799 188.986 309.533 195.47 316.276C198.576 319.1 202.394 321.015 206.51 321.813C210.626 322.611 214.882 322.261 218.813 320.802C222.745 319.343 226.202 316.83 228.808 313.537C231.414 310.245 233.069 306.298 233.593 302.127C234.12 292.771 233.136 283.39 230.68 274.348C229.965 270.931 230.25 267.378 231.502 264.119C232.754 260.86 234.918 258.034 237.735 255.981C243.625 251.372 261.23 238.586 266.538 241.053C275.357 244.1 284.592 245.764 293.917 245.985C298.084 245.735 302.104 244.347 305.542 241.972C308.98 239.598 311.706 236.326 313.425 232.511C315.144 228.696 315.791 224.483 315.296 220.326C314.8 216.169 313.182 212.227 310.616 208.925C304.38 201.938 297.084 195.98 288.997 191.271C286.067 189.344 283.752 186.612 282.329 183.401C280.906 180.19 280.435 176.636 280.972 173.163C281.878 165.634 285.373 144.411 290.81 142.334C299.225 138.294 306.939 132.925 313.658 126.432C316.474 123.318 318.383 119.489 319.179 115.362C319.975 111.234 319.626 106.967 318.171 103.025C316.716 99.0823 314.21 95.6158 310.926 93.0026C307.643 90.3894 303.707 88.7297 299.548 88.2041C290.221 87.6957 280.873 88.6593 271.845 91.0599C268.513 91.7747 265.047 91.5259 261.85 90.3424C258.653 89.1589 255.857 87.0895 253.787 84.3748C249.256 78.4685 236.441 60.7498 238.9 55.4926C241.938 46.6268 243.597 37.3451 243.819 27.9733C243.658 23.7965 242.319 19.751 239.96 16.3051C237.6 12.8592 234.315 10.1539 230.486 8.50219C226.775 6.61461 222.608 5.81433 218.464 6.19317C214.319 6.572 210.366 8.11461 207.056 10.644C200.006 16.9029 194.017 24.268 189.321 32.4517C187.389 35.3952 184.652 37.7191 181.439 39.1461C178.226 40.5732 174.671 41.0431 171.198 40.4998C163.69 39.4613 142.331 36.0214 140.454 30.5046C136.425 22.0659 131.071 14.3305 124.596 7.59353C121.537 4.68338 117.713 2.70978 113.574 1.90492C109.435 1.10006 105.152 1.49742 101.23 3.05027C97.2523 4.43563 93.7508 6.93017 91.1368 10.2411C88.5229 13.552 86.9051 17.542 86.4732 21.7426C85.9618 31.0947 86.9229 40.4692 89.3211 49.5214C90.0519 52.933 89.7805 56.4838 88.5398 59.7438C87.2991 63.0039 85.1423 65.8332 82.3308 67.8892C76.4408 72.4974 58.8356 85.2834 53.5282 82.882C44.6247 79.7237 35.2689 78.0359 25.8259 77.8844C21.6677 78.0412 17.6384 79.3735 14.2027 81.7277C10.7671 84.0818 8.06511 87.362 6.40846 91.1897C4.56781 94.9926 3.85175 99.2446 4.34497 103.443C4.83818 107.641 6.52004 111.61 9.19163 114.88C15.4062 121.864 22.68 127.821 30.745 132.533C33.6982 134.454 36.0298 137.195 37.455 140.422C38.8803 143.649 39.3375 147.223 38.7709 150.707C37.8648 158.235 34.4344 179.459 28.9327 181.536C20.6362 185.641 13.0352 191.029 6.40846 197.502C3.49434 200.507 1.49104 204.28 0.63167 208.382C-0.227704 212.484 0.0921762 216.746 1.55409 220.673C2.94354 224.663 5.44347 228.172 8.75829 230.782C12.0731 233.393 16.0642 234.998 20.2596 235.406C29.5865 235.944 38.9392 234.98 47.9619 232.55C51.4116 231.884 54.9806 232.248 58.2256 233.598C61.4706 234.948 64.2485 237.224 66.2143 240.144C70.8098 246.05 83.5606 263.769 81.1657 269.026C78.0656 277.876 76.4047 287.167 76.2467 296.545C76.4383 300.746 77.7789 304.812 80.1216 308.299C82.4642 311.786 85.7187 314.559 89.5284 316.315C93.3382 318.071 97.5564 318.742 101.721 318.255C105.886 317.767 109.836 316.139 113.14 313.55V313.226ZM92.6221 130.911C98.7211 117.54 108.635 106.282 121.112 98.5583C133.589 90.8349 148.069 86.9928 162.722 87.5174C177.375 88.0421 191.545 92.91 203.441 101.506C215.337 110.102 224.425 122.041 229.557 135.814C234.69 149.587 235.637 164.576 232.278 178.888C228.919 193.201 221.405 206.194 210.686 216.226C199.967 226.258 186.523 232.88 172.052 235.254C157.582 237.628 142.735 235.648 129.386 229.565C120.504 225.517 112.506 219.752 105.849 212.6C99.1926 205.448 94.0083 197.05 90.5933 187.886C87.1783 178.722 85.5997 168.972 85.9478 159.196C86.2959 149.419 88.564 139.807 92.6221 130.911Z" fill="#E0E5EC"/>
<path d="M140.325 204.317C131.839 200.404 124.7 194.057 119.81 186.078C114.919 178.099 112.497 168.846 112.848 159.487C113.199 150.128 116.309 141.083 121.784 133.496C127.259 125.908 134.854 120.117 143.609 116.856C152.364 113.594 161.886 113.007 170.974 115.17C180.061 117.333 188.306 122.147 194.666 129.006C201.026 135.865 205.216 144.46 206.707 153.705C208.198 162.951 206.923 172.432 203.043 180.951C200.461 186.62 196.79 191.723 192.238 195.967C187.686 200.211 182.345 203.513 176.519 205.683C170.693 207.854 164.497 208.85 158.286 208.616C152.075 208.381 145.972 206.92 140.325 204.317Z" fill="#E0E5EC"/>
<path d="M284.273 230.863C282.237 229.926 280.523 228.405 279.349 226.491C278.175 224.578 277.594 222.358 277.678 220.113C277.762 217.868 278.508 215.698 279.822 213.879C281.136 212.059 282.959 210.671 285.06 209.89C287.161 209.109 289.445 208.97 291.625 209.492C293.804 210.013 295.78 211.17 297.303 212.818C298.827 214.466 299.828 216.529 300.182 218.748C300.535 220.966 300.225 223.24 299.289 225.281C298.036 228.018 295.75 230.143 292.934 231.19C290.118 232.237 287.003 232.119 284.273 230.863Z" fill="#E0E5EC"/>
<path d="M286.278 122.863C284.227 121.927 282.499 120.401 281.313 118.479C280.127 116.558 279.536 114.326 279.614 112.068C279.693 109.809 280.438 107.625 281.756 105.791C283.073 103.957 284.903 102.556 287.014 101.766C289.126 100.975 291.423 100.83 293.617 101.35C295.81 101.869 297.801 103.029 299.337 104.683C300.872 106.337 301.884 108.411 302.244 110.642C302.604 112.873 302.296 115.161 301.359 117.216C300.104 119.969 297.811 122.11 294.984 123.168C292.156 124.227 289.025 124.117 286.278 122.863Z" fill="#E0E5EC"/>
<path d="M215.017 42.5113C212.989 41.5654 211.285 40.0384 210.121 38.123C208.957 36.2076 208.385 33.9895 208.476 31.7484C208.568 29.5073 209.319 27.3435 210.635 25.5298C211.951 23.7161 213.773 22.3338 215.872 21.5571C217.97 20.7805 220.251 20.6442 222.426 21.1656C224.602 21.6869 226.575 22.8425 228.096 24.4866C229.618 26.1308 230.62 28.1898 230.976 30.4042C231.332 32.6186 231.027 34.8892 230.098 36.9296C228.831 39.6706 226.533 41.7968 223.706 42.8429C220.88 43.889 217.756 43.7698 215.017 42.5113Z" fill="#E0E5EC"/>
<path d="M106.214 41.3434C104.186 40.3974 102.482 38.8704 101.318 36.955C100.154 35.0396 99.5821 32.8215 99.6735 30.5804C99.765 28.3393 100.516 26.1755 101.832 24.3618C103.148 22.5482 104.97 21.1659 107.069 20.3892C109.167 19.6125 111.448 19.4762 113.624 19.9976C115.799 20.5189 117.772 21.6745 119.294 23.3187C120.815 24.9628 121.817 27.0219 122.173 29.2363C122.529 31.4506 122.224 33.7212 121.295 35.7616C120.674 37.1247 119.791 38.3511 118.696 39.3703C117.6 40.3896 116.315 41.1814 114.913 41.7002C113.511 42.2191 112.021 42.4546 110.528 42.3934C109.035 42.3321 107.569 41.9753 106.214 41.3434Z" fill="#E0E5EC"/>
<path d="M29.8392 113.192C27.8306 112.205 26.156 110.648 25.0244 108.713C23.8928 106.778 23.3543 104.552 23.4758 102.313C23.5974 100.073 24.3738 97.9193 25.7081 96.1192C27.0424 94.3192 28.8757 92.9528 30.9793 92.1906C33.0828 91.4284 35.3636 91.304 37.5372 91.833C39.7108 92.362 41.681 93.5209 43.2022 95.1652C44.7233 96.8096 45.728 98.8665 46.0911 101.08C46.4541 103.293 46.1594 105.564 45.2437 107.61C44.6181 109.009 43.7182 110.266 42.5978 111.309C41.4773 112.351 40.1592 113.156 38.7219 113.677C37.2846 114.198 35.7574 114.423 34.2314 114.34C32.7054 114.257 31.2117 113.866 29.8392 113.192Z" fill="#E0E5EC"/>
<path d="M27.6378 221.776C25.6096 220.83 23.9062 219.303 22.7422 217.388C21.5783 215.472 21.0059 213.254 21.0974 211.013C21.1888 208.772 21.9399 206.608 23.256 204.794C24.5721 202.981 26.3942 201.598 28.4927 200.822C30.5911 200.045 32.8719 199.909 35.0474 200.43C37.223 200.952 39.1959 202.107 40.7174 203.751C42.239 205.395 43.241 207.454 43.5971 209.669C43.9533 211.883 43.6476 214.154 42.7187 216.194C41.4519 218.935 39.1539 221.061 36.3275 222.108C33.5012 223.154 30.3767 223.034 27.6378 221.776Z" fill="#E0E5EC"/>
<path d="M97.0225 300.051C94.9714 299.114 93.2433 297.588 92.0571 295.667C90.8709 293.745 90.2797 291.514 90.3585 289.255C90.4373 286.997 91.1824 284.812 92.4997 282.978C93.8169 281.144 95.647 279.744 97.7584 278.953C99.8698 278.163 102.168 278.018 104.361 278.537C106.554 279.057 108.545 280.217 110.081 281.871C111.616 283.525 112.628 285.599 112.988 287.83C113.348 290.061 113.04 292.349 112.103 294.404C110.848 297.157 108.556 299.297 105.728 300.356C102.9 301.415 99.7694 301.305 97.0225 300.051Z" fill="#E0E5EC"/>
<path d="M205.567 305.048C202.82 303.783 200.687 301.475 199.637 298.633C198.587 295.791 198.706 292.647 199.968 289.893C201.23 287.139 203.531 285 206.365 283.947C209.2 282.894 212.335 283.013 215.081 284.279C216.441 284.905 217.665 285.794 218.682 286.895C219.7 287.995 220.491 289.286 221.011 290.693C221.531 292.101 221.769 293.597 221.712 295.097C221.656 296.596 221.305 298.07 220.68 299.434C220.055 300.797 219.169 302.024 218.071 303.045C216.974 304.065 215.686 304.858 214.283 305.38C212.88 305.901 211.388 306.14 209.892 306.083C208.397 306.026 206.927 305.674 205.567 305.048Z" fill="#E0E5EC"/>
<path d="M257.864 282.786C255.836 281.84 254.133 280.313 252.969 278.397C251.805 276.482 251.232 274.264 251.324 272.023C251.415 269.782 252.166 267.618 253.483 265.804C254.799 263.991 256.621 262.608 258.719 261.832C260.818 261.055 263.098 260.919 265.274 261.44C267.45 261.961 269.422 263.117 270.944 264.761C272.466 266.405 273.468 268.464 273.824 270.679C274.18 272.893 273.874 275.164 272.945 277.204C271.678 279.945 269.38 282.071 266.554 283.117C263.728 284.163 260.603 284.044 257.864 282.786Z" fill="#E0E5EC"/>
<path d="M303.172 180.822C301.122 179.88 299.396 178.349 298.215 176.423C297.033 174.497 296.448 172.262 296.534 170.002C296.619 167.743 297.372 165.559 298.696 163.729C300.021 161.898 301.857 160.503 303.972 159.72C306.088 158.937 308.388 158.802 310.581 159.33C312.773 159.859 314.76 161.028 316.289 162.69C317.818 164.352 318.821 166.432 319.171 168.666C319.52 170.9 319.201 173.188 318.253 175.24C317.632 176.603 316.749 177.829 315.653 178.849C314.558 179.868 313.273 180.66 311.871 181.178C310.469 181.697 308.979 181.933 307.486 181.872C305.993 181.81 304.527 181.453 303.172 180.822Z" fill="#E0E5EC"/>
<path d="M265.308 70.9393C263.257 70.0028 261.529 68.4771 260.342 66.5555C259.156 64.6338 258.565 62.4025 258.644 60.1439C258.722 57.8853 259.468 55.7009 260.785 53.867C262.102 52.0332 263.932 50.6323 266.044 49.8418C268.155 49.0512 270.453 48.9065 272.646 49.4258C274.84 49.9452 276.83 51.1054 278.366 52.7595C279.902 54.4136 280.914 56.4873 281.274 58.7183C281.634 60.9493 281.326 63.2373 280.389 65.2927C279.12 68.0334 276.827 70.1628 274.004 71.2197C271.181 72.2766 268.057 72.1759 265.308 70.9393Z" fill="#E0E5EC"/>
<path d="M161.296 21.8075C159.245 20.8709 157.517 19.3453 156.331 17.4237C155.144 15.502 154.553 13.2707 154.632 11.0121C154.711 8.75345 155.456 6.56901 156.773 4.73517C158.09 2.90133 159.92 1.5005 162.032 0.709949C164.143 -0.0806054 166.441 -0.225358 168.634 0.294008C170.828 0.813374 172.818 1.97352 174.354 3.62763C175.89 5.28175 176.902 7.35551 177.262 9.58649C177.622 11.8175 177.314 14.1054 176.377 16.1608C175.122 18.9134 172.829 21.0541 170.001 22.1128C167.174 23.1715 164.043 23.0617 161.296 21.8075Z" fill="#E0E5EC"/>
<path d="M54.9522 61.3336C52.9241 60.3876 51.2206 58.8607 50.0567 56.9453C48.8927 55.0299 48.3204 52.8118 48.4118 50.5707C48.5032 48.3295 49.2544 46.1657 50.5704 44.3521C51.8865 42.5384 53.7087 41.1561 55.8071 40.3794C57.9055 39.6027 60.1863 39.4665 62.3619 39.9878C64.5375 40.5092 66.5104 41.6647 68.0319 43.3089C69.5534 44.953 70.5554 47.0121 70.9116 49.2265C71.2677 51.4409 70.9621 53.7114 70.0331 55.7519C68.7664 58.4929 66.4684 60.6191 63.642 61.6652C60.8156 62.7113 57.6911 62.592 54.9522 61.3336Z" fill="#E0E5EC"/>
<path d="M7.57291 167.712C5.5249 166.759 3.8055 165.217 2.63301 163.282C1.46053 161.347 0.887863 159.106 0.987711 156.845C1.08756 154.583 1.85542 152.402 3.19381 150.578C4.53219 148.755 6.38073 147.372 8.50471 146.604C10.6287 145.836 12.9323 145.718 15.1231 146.266C17.3139 146.813 19.293 148.001 20.8091 149.679C22.3253 151.357 23.3101 153.448 23.6386 155.688C23.967 157.928 23.6243 160.215 22.6538 162.26C21.3636 164.978 19.0556 167.075 16.2316 168.096C13.4076 169.117 10.2959 168.979 7.57291 167.712Z" fill="#E0E5EC"/>
<path d="M46.0194 276.491C43.9692 275.549 42.244 274.018 41.0623 272.092C39.8806 270.165 39.2955 267.931 39.3813 265.671C39.467 263.412 40.2197 261.228 41.544 259.398C42.8683 257.567 44.7045 256.172 46.8201 255.389C48.9358 254.606 51.2355 254.471 53.4282 254.999C55.6208 255.528 57.6076 256.697 59.1368 258.359C60.6661 260.021 61.669 262.101 62.0186 264.335C62.3681 266.569 62.0485 268.857 61.1003 270.909C59.8335 273.65 57.5355 275.776 54.7091 276.822C51.8828 277.868 48.7583 277.749 46.0194 276.491Z" fill="#E0E5EC"/>
<path d="M149.904 322.961C147.854 322.019 146.129 320.488 144.947 318.562C143.765 316.636 143.18 314.402 143.266 312.142C143.352 309.882 144.104 307.699 145.429 305.869C146.753 304.038 148.589 302.643 150.705 301.86C152.821 301.077 155.12 300.941 157.313 301.47C159.506 301.999 161.492 303.168 163.022 304.83C164.551 306.492 165.554 308.572 165.903 310.806C166.253 313.04 165.933 315.328 164.985 317.38C164.365 318.743 163.481 319.969 162.386 320.988C161.291 322.007 160.005 322.799 158.603 323.318C157.201 323.837 155.711 324.073 154.218 324.011C152.725 323.95 151.259 323.593 149.904 322.961Z" fill="#E0E5EC"/>
</g>
<defs>
<clipPath id="clip0_42_1611">
<rect width="320" height="324" fill="white"/>
</clipPath>
</defs>
</svg>
